<svg xmlns="http://www.w3.org/2000/svg" id="Layer_2" data-name="Layer 2" viewBox="0 0 174.45 43.9"><defs><style>      .cls-1 {        fill: #fff;      }    </style></defs><g id="Layer_1-2" data-name="Layer 1"><g><path class="cls-1" d="M110.4,33.02c-.52-.55-.91-1.17-1.17-1.91-.31-.91-.64-1.82-1.35-2.54-.4-.4-.58-.96-.77-1.5-.35-.99-.5-2.03-.76-3.04-.2-.77-.34-1.57-.92-2.16-.61-.62-.81-1.34-.76-2.16,.06-1.21,0-2.42-.12-3.62-.12-1.25-.25-2.5-.39-3.76-.03-.25,.05-.38,.26-.51,.83-.5,1.58-1.11,2.31-1.76,2.09-1.88,3.15-4.2,3.03-7.03-.04-.93-.33-1.78-.98-2.47-.35-.37-.72-.29-.88,.17-.12,.36-.24,.72-.33,1.08-.51,2.1-1.74,3.62-3.65,4.6-.31,.16-.66,.24-1,.32-.32,.07-.5-.03-.69-.29-1.06-1.47-2.17-2.91-3.49-4.16-.94-.89-1.86-1.81-3.1-2.3h-.6c-1.05,.26-2.04,.7-3,1.2-3.1,1.62-5.63,3.92-7.83,6.6-.36,.43-.22,.49-.74,.08-1.42-1.12-2.25-2.61-2.64-4.37-.05-.22-.08-.45-.17-.66-.13-.31-.35-.47-.72-.39-.38,.09-.61,.33-.79,.65-.41,.74-.54,1.56-.51,2.37,.07,2.51,1.04,4.66,2.81,6.44,.2,.2,.23,.33,.1,.57-.19,.33-.34,.67-.51,1.01-.68,1.35-1.42,2.66-2.33,3.87-.2,.27-.28,.52-.26,.83,.02,.3,.15,.56,.31,.8,.31,.47,.62,.95,.95,1.41,.57,.78,.71,1.61,.35,2.53-.2,.53-.4,1.06-.51,1.62-.1,.49-.1,.92,.35,1.29,.43,.35,.39,.59-.1,.87-.6,.34-.86,.92-1.14,1.5-.06,.12-.12,.3,0,.39,.33,.22,.26,.53,.26,.85-.01,.52-.03,1.03,0,1.55,.04,.71,.19,1.4,.7,1.95,.14,.15,.3,.35,.52,.09,.21-.25,.4-.19,.58,.04,.18,.23,.38,.44,.56,.66,.34,.43,.78,.7,1.32,.82,.46,.1,.92,.13,1.39,.1,.6-.03,1.21-.07,1.81,.03,1.23,.21,1.88,.98,1.83,2.23-.02,.46-.08,.93-.15,1.39-.17,1.14,.18,2.08,1.03,2.85,.54,.49,1.17,.82,1.88,1.01,1.12,.31,2.26,.3,3.41,.24,2.17-.12,4.24-.55,6.1-1.75,.78-.51,1.56-1.02,2.31-1.57,.48-.35,.63-.35,1.09,.03,.23,.19,.46,.4,.69,.58,.17,.13,.35,.24,.57,.28,.63,.12,1.26,.26,1.89,.35,1.01,.14,1.97,0,2.74-.75,.4-.39,.9-.64,1.37-.93,1.1-.69,1.49-1.3,1.27-2.88-.14-1.07-.69-1.96-1.42-2.74Zm.36,3.59c-.25,.19-.52,.2-.76-.02-.17-.16-.26-.37-.33-.58-.13-.39-.32-.73-.67-.98-.09-.06-.16-.16-.22-.26-.07-.11-.12-.23-.05-.35,.08-.14,.21-.11,.36-.11,.46,.03,.83,.28,1.1,.67,.23,.32,.42,.66,.64,.98,.17,.25,.16,.48-.08,.66Zm-13.45,3.21c-.09-.34-.44-.64-.77-.69-.15-.02-.23,.05-.33,.14-.66,.6-.69,1.42-.07,2.06,.04,.04,.09,.08,.19,.18-1.22,.22-2.39,.41-3.61,.17,.15-.32,.27-.63,.32-.97,.06-.38-.07-.67-.38-.88-.3-.21-.63-.31-1-.16-.29,.12-.41,.36-.39,.67,.01,.26,.07,.52,.08,.79,.02,.33-.13,.5-.45,.44-1.11-.22-2.13-.62-2.69-1.72-.06-.11-.11-.23-.13-.35-.14-.69,.06-.88,.72-.69,2.36,.67,4.75,.85,7.17,.34,1.6-.34,3.13-.84,4.52-1.7,.07-.04,.15-.08,.24-.13-.13,.34-.32,.55-.74,.82-.57,.36-1.18,.62-1.79,.88-.19,.08-.3,.15-.14,.37,.16,.21,.16,.47,.15,.73,0,.24,.06,.28,.28,.19,.88-.35,1.68-.86,2.55-1.23,.15-.06,.28-.17,.57-.11-1.32,1.13-2.75,1.87-4.44,2.34,.18-.54,.26-.99,.13-1.46Zm-10.83-9.23c-.55-.39-1.18-.39-1.81-.38-.43,0-.86,0-1.26-.18-.46-.22-.48-.31-.1-.63,.34-.3,.33-.45-.07-.68-.52-.3-1.02-.2-1.48,.13-.58,.4-.98,.97-1.41,1.51-.15,.2-.29,.41-.46,.6-.22,.24-.51,.16-.6-.16-.08-.31,.02-.57,.22-.8,.18-.21,.38-.4,.57-.6,.2-.22,.15-.39-.08-.56-.56-.41-.54-.73,.04-1.12,.18-.12,.38-.22,.59-.25,.84-.14,1.62-.45,2.42-.73,1.01-.35,1.99-.38,2.97,.08,.39,.18,.79,.33,1.23,.34,.18,0,.41,.05,.5-.16,.09-.2,.02-.39-.12-.56-.38-.44-.59-.97-.65-1.54-.11-1.01,.15-1.88,1.06-2.44,.37-.23,.73-.44,.66-.98-.03-.21,.17-.23,.35-.24,.21,0,.52,.1,.59-.18,.08-.28-.23-.38-.42-.51-.15-.1-.31-.17-.47-.25-.23-.13-.5-.24-.5-.56,0-.34,.3-.43,.55-.55,.12-.06,.26-.1,.38-.17,.15-.09,.33-.17,.27-.4-.05-.24-.23-.26-.44-.26-.35,0-.73,.13-1.09-.2,.61-.41,1.23-.47,1.85-.17,.52,.25,1,.57,1.45,.94,.24,.2,.36,.43,.31,.76-.15,.94-.01,1.89-.15,2.83-.08,.59-.21,1.15-.66,1.61-.41,.42-.32,.96-.2,1.47,.14,.59,.35,1.15,.51,1.73,.09,.32,.07,.65-.01,.97-.08,.3-.27,.36-.51,.21-.23-.15-.44-.34-.66-.51-.19-.14-.39-.33-.64-.13-.23,.19-.13,.44-.02,.66,.28,.61,.74,1.07,1.31,1.43,.48,.3,.97,.58,1.44,.9,.45,.31,.82,.71,.98,1.25,.13,.43-.03,.77-.48,.97-.37,.17-.55,.1-.82-.32-.08-.12-.18-.21-.31-.27-.35-.18-.67-.39-.94-.69-.2-.24-.49-.19-.74-.11-.39,.14-.69,.03-.95-.25-.14-.15-.27-.3-.42-.44-.48-.42-.97-.79-1.64-.38-.08,.05-.12,0-.16-.03Zm-3.23,.13s.05,.01,.07,.02c.87,.24,1.53,1.11,1.43,1.88-.09,.69-.87,1.22-1.81,1.22-.95,0-1.77-.65-1.83-1.45-.07-.96,1.14-1.91,2.14-1.67Zm-3.38-12.22c-.29-.05-.59-.26-.88-.48-.13-.1-.08-.22,0-.33,.09-.12,.18-.21,.35-.13,.34,.16,.6,.41,.77,.74,.09,.18,0,.22-.24,.2Zm3.04-9.05c-.13,.39-.25,.79-.34,1.19-.07,.34-.2,.27-.38,.1-.25-.23-.47-.48-.65-.77-.98-1.59-1.77-3.26-2.07-5.22,.24,.47,.42,.87,.63,1.25,.67,1.17,1.54,2.17,2.64,2.96,.2,.14,.25,.27,.18,.49Zm8.99,2.95c1.54,.21,3.03,.64,4.49,1.16,1.86,.66,3.68,1.43,5.42,2.36,.48,.25,.94,.54,1.27,.99-1.33-.58-2.65-1.21-4.01-1.74-2.06-.81-4.14-1.57-6.31-2.05-.27-.06-.55-.08-.82-.13-.2-.04-.25,.04-.28,.23-.12,.78-.12,.78,.63,.93,3.73,.74,7.23,2.14,10.67,3.68,.3,.13,.57,.32,.83,.57-.18,.07-.29-.03-.41-.07-2.25-.81-4.49-1.64-6.75-2.39-2.86-.95-5.79-1.41-8.8-1.33-.33,0-.66,.02-.98,0-.16-.01-.41,.13-.49-.12-.08-.25,.22-.66,.48-.69,1.09-.15,2.19-.11,3.28,0,.58,.06,.58,.07,.65-.49,.11-.96,.17-1.04,1.13-.91Zm-.53-1.28c.33-.79,.66-1.57,1-2.36,.59-1.39,1.32-2.71,2.05-4.03,.24-.44,.53-.85,.96-1.15-.65,1.25-1.16,2.56-1.72,3.85-.52,1.19-.88,2.43-1.29,3.66-.12,.37-.65,.55-.99,.35-.17-.1-.04-.22,0-.32Zm7.37,.35c.49,.87,1.34,1.17,2.29,1.23,.85,.05,1.68-.07,2.51-.26,.18-.04,.28-.04,.29,.18,.06,1.12,.14,2.23,.21,3.36-.68-.17-.9-.43-.93-1.06-.02-.46-.05-.93-.13-1.39-.04-.24-.15-.3-.39-.27-.77,.1-1.55,.15-2.33,.16-1.56,.02-3.19-1.78-2.82-3.41,.19-.83,.43-1.62,1.06-2.24-.05,.16-.1,.33-.16,.49-.45,1.14-.16,2.21,.4,3.21Zm1.65-1.21c.05,.28,.25,.49,.34,.79-.58-.25-1.02-1.15-.87-1.68,.03-.12,.11-.14,.2-.11,.1,.03,.27-.02,.26,.14-.02,.29,.03,.57,.08,.85Zm2.25,.6c-.52,.18-.83,.08-1.1-.4-.16-.28-.25-.57-.25-.9,0-.62,.07-.7,.69-.77,.25-.03,.49-.11,.73-.2,2.4-.85,4.36-2.27,5.69-4.48,.02-.03,.05-.05,.12-.13-.04,1.69-.69,3.05-1.81,4.21-1.16,1.19-2.48,2.12-4.06,2.67Zm2.26,11.31c.77,.96,1.16,2.07,1.38,3.26,.12,.66,.17,1.32,.18,1.99,0,.23-.04,.44-.27,.53-.24,.1-.37-.11-.5-.26-.54-.63-.68-1.39-.66-2.18,0-.1,.01-.2,.02-.3,.12-1-.17-1.92-.59-2.81-.06-.13-.23-.29,0-.42,.2-.11,.32,.03,.44,.18Zm2.89,10.57c-.18,.05-.36,.05-.51-.04-.75-.44-1.18-1.1-1.29-1.86,0-.42,.09-.71,.33-.92,.17-.14,.35-.15,.37,.12,.06,.71,.48,1.22,.92,1.73,.14,.16,.27,.33,.38,.51,.12,.22,.07,.38-.2,.45Zm-2.11,.84c.08,.1,.3,.19,.13,.36-.14,.14-.33,.14-.48,0-.81-.72-1.42-1.58-1.81-2.6-.01-.03-.01-.07-.02-.12,.02-.22,.15-.38,.35-.43,.21-.06,.31,.1,.34,.27,.15,1.05,.85,1.76,1.49,2.53Zm-4.71-11.97c.31,.3,.62,.58,.93,.88,.26,.25,.43,.55,.45,.92,.02,.23-.08,.39-.27,.5-.2,.11-.38,.04-.56-.09-1-.73-1.5-1.76-1.8-2.92-.07-.25-.11-.51-.16-.77-.06-.32,.15-.4,.4-.4,.25,0,.52,.06,.46,.4-.11,.61,.14,1.07,.56,1.48Zm-1.34,8.04c.24,.81,.68,1.54,1,2.31,.07,.16,.18,.38,.41,.3,.26-.09,.25-.32,.2-.54-.1-.48-.36-.91-.54-1.36-.07-.18-.25-.41-.06-.55,.19-.14,.41,.03,.57,.16,.62,.52,.88,1.24,1.05,2,.06,.27,.11,.54,.09,.83-.03,.37,.04,.79-.36,1.01-.39,.22-.64-.14-.9-.31-.85-.56-1.42-1.38-1.92-2.25-.85-1.49-1.23-3.13-1.41-4.81-.01-.11-.03-.23,.1-.29,.16-.07,.3-.01,.41,.11,.3,.33,.52,.71,.69,1.12,.31,.73,.44,1.52,.66,2.28Zm2.03-2.75c-.26-.6-.5-1.21-.75-1.81-.04-.11-.08-.21-.04-.36,.07,.03,.11,.03,.14,.05,.78,.82,1.56,1.64,1.99,2.71,.06,.16,.07,.32,.07,.48,0,.16-.04,.31-.21,.36-.16,.05-.26-.04-.35-.15-.34-.39-.63-.82-.84-1.29Zm-3.91-5.23c-.01,.09-.02,.21-.05,.32-.09,.34-.29,.41-.54,.17-.52-.51-.74-1.13-.65-1.85,.02-.16,.04-.35,.22-.41,.21-.07,.37,.07,.49,.21,.39,.44,.48,.98,.52,1.56Zm-4.64,16.82c-.21,.02-.43,.03-.67,.04-1.1-.06-2.2-.18-3.24-.67-.45-.21-.62-.64-.45-1.09,.06-.14,.11-.26,.3-.14,.97,.63,2.09,.77,3.18,.99,.2,.04,.4,.06,.6,.09,.21,.03,.38,.14,.49,.32,.17,.27,.1,.41-.21,.45Zm-10.85-17.1c.11,.06,.06,.15,.04,.23-.21,1.07-.58,2.1-.93,3.16-.38-.24-.51-.49-.4-.91,.17-.71,.28-1.43,.47-2.13,.08-.28,.58-.49,.82-.35Zm-.37-.92c.02-.14,.12-.14,.22-.13,.22,.02,.54,.31,.53,.5-.02,.14-.14,.16-.27,.16-.19-.01-.49-.35-.48-.52Zm.27,3.76c.36-.85,.55-1.74,.73-2.64,.04-.21,.08-.42,.34-.6,.04,.66-.04,1.25-.09,1.85-.02,.3-.06,.6-.11,.9-.04,.25,.08,.44,.21,.62,.21,.28,.14,.49-.16,.63-.32,.14-.7,.38-.99,.13-.24-.21-.06-.6,.06-.88Zm1.15-6.6c-.07,.07-.17,.1-.26,.16-.32,.2-.61,.18-.81-.16-.29-.49-.81-.61-1.28-.85,2.37-.51,4.74-.86,7.22-.65-.3,.52-.61,.78-1.18,.66-.44-.09-.83,.14-1.17,.43-.26,.22-.51,.45-.78,.66-.18,.14-.39,.22-.62,.25-.33,.05-.61,0-.7-.38-.08-.31-.23-.29-.44-.11Zm6.3-5.17c-.03,.19-.05,.41-.34,.41-.68,0-1.36,.03-2.04,.04-.11,0-.23,.02-.34,.02-.76,.02-1.29,.31-1.44,1.13-.09,.5-.42,.7-.94,.75-1.02,.09-2.04,.22-3.04,.51-.04-.18,.07-.27,.12-.37,.29-.5,.6-.99,.85-1.51,.19-.4,.49-.61,.96-.69,1.97-.3,3.96-.36,5.95-.42,.09,0,.3-.09,.26,.14Zm11.51,23.19c-.1-.13-.22-.27-.08-.43,.16-.18,.32-.08,.46,.03,.33,.24,.66,.47,1.03,.63,.4,.17,.54,.1,.67-.3,.02-.06,.03-.12,.05-.18,.15-.37,.22-.39,.51-.12,.5,.46,1.02,.9,1.44,1.44,.2,.26,.39,.53,.46,.85,.06,.27-.08,.45-.38,.44-.72-.17-1.45-.4-2.14-.74-.79-.39-1.47-.92-2.02-1.61Zm5.72,3.17c-.11-.32,.06-.54,.41-.54,.25,0,.77,.45,.83,.7,.02,.08-.03,.11-.08,.15-.35,.31-1.01,.14-1.17-.31Zm1.59-.67c-.65-.38-.72-.96-.19-1.49,.08-.08,.17-.1,.27-.08,.43,.11,1.05,.94,1.03,1.39-.02,.45-.31,.62-.72,.41-.13-.07-.26-.15-.39-.23ZM95.79,.58c1.03,.69,1.9,1.56,2.82,2.39,.93,.83,1.59,1.88,2.3,2.89,.26,.37,.5,.74,.77,1.13-.35,.07-.55-.03-.73-.3-1.4-2.02-3.06-3.8-5.02-5.3-.28-.21-.39-.18-.58,.1-1.16,1.69-2.41,3.32-3.36,5.15-.74,1.43-1.42,2.89-2.05,4.37-.13,.31-.29,.4-.61,.38-.86-.05-.87-.04-.51-.83,1.51-3.33,3.59-6.28,6.08-8.95,.17-.18,.36-.35,.54-.52-.19-.26-.36-.22-.59-.03-2.75,2.36-4.91,5.18-6.52,8.42-.27,.55-.55,1.1-.82,1.66-.07,.15-.15,.27-.35,.28-1.31,.07-2.61,.15-3.94,.38,.11-.37,.31-.64,.47-.93,2.65-4.56,6.43-7.88,11.13-10.2,.08-.04,.16-.07,.23-.12,.25-.19,.43-.17,.73,.03Z"></path><path class="cls-1" d="M17.55,18.32c0-.53,0-1.06,0-1.59,0-.2-.09-.26-.27-.26-1.84,0-3.68,0-5.52,0-.21,0-.29,.07-.29,.28,.01,.38,0,.76,0,1.13q0,.72,.7,.75c.1,0,.2,0,.3,.01,.54,.04,.75,.24,.77,.78,.02,.62,.01,1.23,.02,1.85,0,.38,0,.76,0,1.24h-.02c-.21-.21-.34-.34-.47-.48-1.61-1.77-3.22-3.54-4.83-5.3-.12-.14-.23-.27-.46-.27-2.07,.01-4.13,0-6.2,0-.22,0-.32,.06-.32,.29,.01,.53,.01,1.06,0,1.59,0,.23,.08,.3,.31,.3,.67-.01,1.33,0,2,0,.28,0,.49,.09,.65,.3,.4,.52,.8,1.04,1.21,1.54,.12,.15,.12,.27,.04,.44-1.04,2.01-2.09,4.02-3.09,6.04-.45,.9-1.16,1.14-2.08,1.06v2.12c.06,0,.13,0,.19,0,2,0,4.01,0,6.01,0,.22,0,.38,0,.37-.31-.02-.52-.01-1.03,0-1.55,0-.2-.08-.26-.27-.26-.39,0-.78-.02-1.17-.02-.28,0-.41-.04-.23-.35,.41-.72,.79-1.46,1.18-2.19,.42-.79,.84-1.57,1.25-2.36,.16,.05,.22,.17,.3,.26,1.91,2.14,3.83,4.27,5.74,6.42,.21,.24,.42,.4,.77,.37,.44-.04,.88,0,1.32,0q.53,0,.53-.52c0-3.22,0-6.45,0-9.67,0-1.21,.06-1.27,1.25-1.37,.01,0,.03,0,.04,0,.2,.02,.27-.07,.26-.27Z"></path><path class="cls-1" d="M50.08,40.74c-.42-.21-.86-.34-1.31-.47-.65-.19-1.32-.33-1.92-.65-.36-.2-.64-.46-.63-.91,.02-.45,.3-.73,.68-.91,.62-.29,1.28-.31,1.92-.21,.71,.11,1.39,.3,1.59,1.15,.05,.22,.33,.1,.5,.09,.17-.01,.1-.18,.08-.28-.11-.57-.47-.94-.98-1.16-1.11-.49-2.24-.52-3.37-.08-.61,.24-1.04,.66-1.08,1.36-.04,.74,.39,1.16,.98,1.46,.63,.33,1.32,.48,1.99,.67,.48,.13,.97,.27,1.4,.54,.71,.44,.72,1.24,0,1.67-.16,.1-.34,.17-.52,.22-.65,.19-1.32,.19-1.98,.03-.61-.14-1.18-.36-1.36-1.08-.06-.23-.31-.1-.46-.1-.2,0-.14,.18-.12,.29,.13,.65,.6,.98,1.17,1.23,.37,.16,.78,.19,1.16,.31h1.13c.31-.08,.63-.14,.94-.25,.68-.25,1.2-.67,1.23-1.46,.03-.74-.46-1.16-1.07-1.46Z"></path><path class="cls-1" d="M73.72,42.27c-1.09,1.13-2.82,1.39-4.2,.63-1.75-.96-2.07-3.07-.66-4.4,1.41-1.34,3.74-1.21,4.98,.29,.26,.31,.46,.14,.64,.02,.22-.16-.05-.28-.13-.38-1.02-1.26-2.9-1.75-4.53-1.18-1.48,.51-2.45,1.75-2.47,3.15-.02,1.43,.88,2.64,2.36,3.22,.34,.13,.71,.16,1.05,.28h.98c.08-.08,.19-.06,.28-.08,1.08-.22,1.96-.74,2.58-1.68q-.51-.26-.88,.12Z"></path><path class="cls-1" d="M171.78,24.98c-.53-.22-1.07-.45-1.58-.71-.22-.11-.33-.06-.47,.12-.51,.69-1.04,1.36-1.6,2-.73,.82-1.56,1.46-2.71,1.57-1.11,.11-2.21,.06-3.32,.04-.52-.01-.64-.15-.64-.66,0-.87,0-1.74,0-2.61,0-1.19,0-1.2,1.21-1.24,.86-.03,1.64,.15,2.1,.97,.1,.18,.21,.2,.4,.12,.48-.23,.96-.45,1.45-.64,.22-.09,.2-.19,.1-.37-.7-1.22-1.4-2.44-2.1-3.67-.1-.17-.19-.23-.38-.13-.39,.2-.79,.39-1.2,.55-.26,.1-.39,.25-.43,.54-.07,.51-.43,.81-.91,.87-.14,.02-.25,0-.25-.18,0-.79-.04-1.59-.02-2.38,0-.46,.14-.56,.62-.56,.63,0,1.26,.03,1.89,0,.89-.02,1.58,.32,2.09,1.06,.37,.54,.75,1.07,1.12,1.61,.12,.18,.23,.22,.43,.14,.49-.2,.98-.39,1.48-.56,.23-.08,.24-.16,.13-.37-.63-1.23-1.26-2.47-1.86-3.71-.14-.28-.3-.37-.61-.37-3.34,0-6.68,0-10.01,0-.23,0-.45,.01-.68,0-.23-.01-.31,.08-.3,.31,.01,.48,.02,.96,0,1.44-.02,.34,.08,.45,.44,.45,.88-.01,1.06,.19,1.09,1.05,.08,2.25,.03,4.51,.04,6.76,0,.29-.02,.58-.04,.87-.04,.45-.23,.63-.68,.65-.29,.01-.58,0-.87,.01-.35,.02-.63-.11-.89-.34-.72-.67-1.45-1.32-2.18-1.98-.53-.48-1.06-.96-1.6-1.44,.05-.04,.07-.06,.09-.07,.1-.03,.19-.06,.29-.09,.9-.29,1.59-.84,1.93-1.73,.48-1.28,.51-2.57-.1-3.81-.54-1.1-1.37-1.86-2.64-2.02-.55-.07-1.11-.04-1.66-.04-2.46,0-4.91,0-7.37,0-.59,0-.51-.06-.52,.53,0,.26,0,.53,0,.79q0,.79,.79,.84c.62,.04,.81,.2,.81,.8,0,2.59,0,5.19,0,7.78,0,.54-.18,.73-.73,.75-.48,.02-.96,0-1.44,0-.46,0-.77-.22-.95-.66-1.5-3.56-3.19-7.03-4.77-10.55-.1-.22-.22-.29-.46-.29-.98,.01-1.97,.01-2.95,0-.3,0-.47,.08-.6,.37-1.09,2.4-2.2,4.8-3.31,7.2-.46,.99-.93,1.98-1.37,2.98-.3,.68-.77,1.03-1.52,.98-.13,0-.25,0-.38,0-.22-.02-.32,.06-.32,.3,.01,.53,0,1.06,0,1.59,0,.21,.08,.28,.29,.28,1.86,0,3.73,0,5.59,0,.23,0,.31-.07,.31-.3-.01-.39,0-.78,0-1.17q0-.65-.63-.7c-.37-.03-.47-.17-.33-.52,.12-.32,.3-.61,.42-.92,.1-.25,.26-.32,.52-.32,1.22,.01,2.45,.07,3.66-.02,.87-.06,1.33,.2,1.59,1.03,.2,.65,.16,.79-.53,.79-.03,0-.05,0-.08,0-.25-.07-.3,.06-.29,.28,.01,.48,.03,.96,0,1.44-.02,.36,.11,.43,.44,.43,4.32-.01,8.64,0,12.96,0,.18,0,.35,0,.53,0,.19,0,.27-.05,.27-.26-.01-.54-.02-1.08-.01-1.62,0-.18-.06-.25-.24-.26-.26,0-.53-.02-.79-.03-.58-.03-.76-.22-.78-.79-.02-.59-.02-1.18-.03-1.77,0-.11-.04-.23,.09-.33,.1,.09,.21,.17,.31,.26,1.65,1.52,3.3,3.03,4.95,4.55,.2,.18,.4,.26,.67,.26,1.89-.01,3.78,0,5.67,0,3.45,0,6.9,0,10.35,0,.22,0,.4,0,.54-.24,.86-1.52,1.73-3.04,2.61-4.55,.13-.22,.07-.29-.14-.38Zm-38.06-1.39c-.93,0-1.86,0-2.79,0-.16,0-.25-.04-.16-.22,.5-1.05,1-2.1,1.55-3.25,.55,1.14,1.06,2.19,1.57,3.23,.1,.2,.01,.23-.16,.23Zm16.27-2.82c-.11,.69-.84,1.41-1.57,1.5-.46,.06-.93,.03-1.4,.01-.22,0-.3-.12-.3-.34,.01-.5,0-1.01,0-1.51h-.03c0-.49,0-.98,0-1.47,0-.15,0-.29,.19-.31,.71-.05,1.43-.14,2.11,.2,.72,.37,1.11,1.13,.99,1.91Z"></path><path class="cls-1" d="M57.1,21.31c-.75-2.7-2.54-4.37-5.39-4.76-.25-.03-.5-.06-.75-.06-2.2,0-4.41,0-6.61,0-.27,0-.39,.07-.37,.36,.02,.26,0,.53,0,.79,.01,.3-.12,.67,.06,.88,.19,.23,.57,.09,.86,.12,.68,.09,.84,.23,.84,.9,0,2.48,0,4.96,0,7.44,0,.72-.3,.95-1,.85-.26-.04-.42-.22-.59-.38-.93-.85-1.85-1.7-2.78-2.55-.24-.22-.48-.44-.72-.66,.05-.04,.06-.07,.08-.07,.11-.04,.21-.07,.32-.1,1.04-.32,1.71-1.02,2.03-2.06,.23-.77,.28-1.56,.14-2.35-.21-1.22-1.15-2.89-2.96-3.13-.58-.07-1.16-.04-1.73-.04-2.48,0-4.96,0-7.44,0-.31,0-.43,.07-.41,.4,.03,.39,0,.78,0,1.17,0,.7-.03,.59,.58,.6,.88,.01,1.03,.16,1.03,1.05,0,2.42,0,4.84,0,7.25,0,.16-.01,.33-.03,.49-.03,.37-.26,.53-.6,.55-.23,.02-.45,.04-.68,.04-.23,0-.3,.1-.3,.32,.01,.47,.02,.93,0,1.4-.02,.33,.08,.43,.42,.43,2.24-.02,4.48,0,6.73,0,.06,0,.13,0,.19,0,.16,0,.22-.07,.21-.23-.02-.53-.03-1.06-.02-1.59,0-.22-.06-.33-.3-.32-.26,0-.53-.02-.79-.04-.49-.04-.65-.18-.71-.66-.09-.74,0-1.48-.06-2.26,.21,.05,.29,.18,.39,.27,1.66,1.52,3.32,3.04,4.97,4.58,.2,.18,.4,.26,.67,.26,2.85,0,5.69-.02,8.54,0,1.98,.01,3.63-.74,4.88-2.24,1.62-1.94,1.98-4.23,1.31-6.61Zm-17.48-.63c-.08,.8-.89,1.56-1.75,1.61-.38,.02-.75,0-1.13,0-.27,0-.41-.09-.4-.4,.03-.48,0-.96,0-1.43h-.03c0-.49,0-.98,0-1.47,0-.24,.08-.34,.32-.35,.54-.02,1.08-.07,1.61,.08,.89,.25,1.46,1.08,1.37,1.96Zm12.59,5.69c-.55,.81-1.31,1.25-2.29,1.35-.27,.03-.38-.04-.38-.34,0-1.37,.04-2.74-.02-3.97,0-1.5,0-2.86,0-4.22,0-.45,.03-.48,.47-.44,.88,.07,1.58,.43,2.1,1.16,1.27,1.77,1.33,4.68,.12,6.45Z"></path><path class="cls-1" d="M120.59,30.16c.29-.03,.58-.03,.87,0,.27,.02,.39-.09,.49-.33,1.3-3.49,2.78-6.9,3.94-10.44,.17-.53,.52-.78,1.05-.8,.13,0,.25-.02,.38,0,.22,.02,.28-.07,.28-.28-.01-.5-.01-1.01,0-1.51,0-.24-.07-.33-.32-.33-1.85,0-3.7,0-5.55,0-.26,0-.32,.1-.31,.33,.02,.48,.02,.96,0,1.43-.01,.26,.06,.38,.34,.34,.07-.01,.15,0,.23,0,.54,.02,.62,.15,.42,.66-.44,1.11-.87,2.22-1.31,3.33-.06,.14-.07,.32-.23,.42-.03-.03-.06-.05-.07-.08-.63-1.3-1.25-2.61-1.87-3.91-.16-.34-.11-.4,.29-.42,.17,0,.33,0,.33-.24,0-.55,0-1.11,0-1.66,0-.18-.09-.23-.26-.23-1.64,0-3.27,0-4.91,0-.21,0-.29,.07-.28,.29,.01,.49,.02,.98,0,1.47-.02,.32,.08,.41,.4,.4,.64-.02,.76,.08,.98,.67,.17,.45,.32,.9,.49,1.35,.04,.1,.07,.19,.02,.29-.35,.73-.71,1.46-1.08,2.22-.24-.3-.34-.62-.49-.91-.49-.98-.97-1.96-1.45-2.94-.23-.46-.16-.6,.33-.68,.19-.03,.18-.13,.18-.26,0-.54,0-1.08,0-1.62,0-.19-.05-.27-.25-.27-1.84,0-3.68,0-5.52,0-.19,0-.27,.07-.26,.27,0,.49,.02,.98,0,1.47-.02,.32,.07,.44,.41,.44,.57-.01,1.07,.14,1.29,.76,.13,.35,.28,.7,.44,1.04,1.46,3.09,2.93,6.18,4.38,9.28,.17,.36,.36,.49,.76,.48,1.04-.03,1.03-.01,1.4-.99,.56-1.45,1.12-2.9,1.7-4.38,.16,.1,.17,.22,.22,.32,.68,1.55,1.36,3.11,2.03,4.67,.11,.27,.24,.41,.55,.37Z"></path><path class="cls-1" d="M28.23,17.62c-1.4-1.16-3.06-1.47-4.82-1.34-2.4,.17-4.19,1.31-5.27,3.48-.76,1.52-.95,3.14-.7,4.81,.18,1.22,.54,2.39,1.29,3.38,1.32,1.76,3.13,2.5,5.29,2.41,.3,0,.61,.02,.91,0,2.03-.17,3.65-1.06,4.71-2.84,.68-1.12,.98-2.36,1.08-3.65,.19-2.49-.52-4.63-2.49-6.25Zm-1.62,5.75c.02,.88-.11,1.73-.44,2.54-.13,.34-.31,.66-.53,.95-.96,1.21-2.51,1.14-3.35-.15-.52-.79-.71-1.68-.8-2.6-.1-1.15-.01-2.29,.42-3.37,.29-.71,.72-1.3,1.5-1.54,.87-.27,1.8,.1,2.37,.9,.57,.8,.74,1.72,.82,2.67,.02,.2,0,.4,0,.6Z"></path><path class="cls-1" d="M76.48,27.11c-.51-.39-1.01-.8-1.5-1.2-.14-.12-.22-.1-.32,.05-.17,.26-.38,.5-.62,.71-.77,.65-1.68,.79-2.65,.77-1.09-.02-1.99-.44-2.53-1.38-1.12-1.95-1.08-3.97-.13-5.96,.72-1.51,3.02-2.09,4.41-.58,.47,.51,.85,1.06,1.09,1.7,.1,.26,.21,.31,.47,.25,.46-.11,.94-.18,1.41-.24,.26-.03,.34-.11,.29-.38-.3-1.54-.58-3.09-.86-4.63-.04-.24-.15-.31-.38-.29-.27,.03-.55,.03-.83,.04-.63,.03-.64,.03-.84,.63-.06,.17-.12,.24-.29,.14-1.13-.64-2.34-.7-3.59-.55-2.24,.26-3.97,1.3-4.99,3.37-.78,1.57-.94,3.25-.72,4.97,.23,1.8,.95,3.36,2.43,4.49,1.35,1.02,2.91,1.38,4.6,1.39,.44,0,.91-.02,1.37-.09,1.82-.3,3.21-1.24,4.18-2.81,.08-.12,.18-.23-.01-.37Z"></path><path class="cls-1" d="M60.62,30.15c1.07,0,2.14,0,3.21,0,.24,0,.34-.05,.33-.31-.02-.33,0-.65,0-.98q0-.84-.85-.87c-.62-.03-.76-.16-.84-.78-.01-.11-.02-.23-.02-.34,0-2.38,0-4.76,0-7.14,0-.18,.02-.35,.04-.53,.04-.33,.24-.52,.57-.56,.26-.03,.53-.06,.79-.06,.21,0,.32-.05,.31-.29-.02-.52-.01-1.03,0-1.55,0-.22-.08-.28-.29-.28-2.17,0-4.33,0-6.5,0-.26,0-.32,.1-.31,.34,.01,.38,0,.76,0,1.13q0,.67,.66,.7c.85,.03,1.01,.19,1.01,1.04,0,2.38,0,4.76,0,7.14,0,.16,0,.33-.02,.49-.06,.47-.23,.63-.71,.67-.23,.02-.45,.04-.68,.03-.22,0-.28,.09-.28,.3,.01,.5,.02,1.01,0,1.51-.01,.27,.1,.34,.35,.34,1.07-.01,2.14,0,3.21,0Z"></path><path class="cls-1" d="M64.4,37.42c0-.19-.05-.26-.25-.28-.28-.02-.37,.07-.37,.36,.01,1.72,0,3.45,0,5.26-.11-.1-.16-.13-.2-.17-.69-.77-1.37-1.54-2.06-2.31-.88-.99-1.77-1.97-2.64-2.96-.17-.2-.38-.2-.58-.15-.23,.05-.12,.27-.12,.42,0,1.94,0,3.88,0,5.82,0,.23,0,.37,.31,.37,.29,0,.32-.11,.32-.35,0-1.6,0-3.2,0-4.8,0-.13-.03-.27,.05-.42,.97,1.08,1.92,2.14,2.87,3.2,.66,.74,1.33,1.48,1.98,2.23,.18,.2,.39,.14,.59,.12,.15-.01,.1-.15,.1-.24,0-2.03,0-4.05,0-6.08Z"></path><path class="cls-1" d="M78.42,37.7c1.27,.01,2.54,0,3.82,0,.2,0,.33,0,.33-.27,0-.24-.09-.3-.31-.3-1.5,0-3,0-4.5,0-.25,0-.33,.07-.32,.32,.01,.99,0,1.99,0,2.98,0,.99,0,1.99,0,2.98,0,.22,.03,.34,.3,.33,1.51-.01,3.02,0,4.53,0,.2,0,.29-.05,.29-.27,0-.27-.14-.27-.33-.27-1.27,0-2.54,0-3.82,0-.29,0-.37-.08-.36-.36,.02-.58,.02-1.16,0-1.74,0-.26,.06-.35,.33-.34,1.05,.02,2.09,0,3.14,0,.2,0,.37,.02,.37-.27,0-.31-.2-.26-.38-.26-1.05,0-2.09,0-3.14,0-.24,0-.33-.07-.32-.32,.02-.63,.02-1.26,0-1.89-.01-.29,.09-.35,.36-.35Z"></path><path class="cls-1" d="M131.48,41.5c-.15,0-.3-.01-.45,0-.22,.02-.28-.07-.28-.28,.01-.4,0-.81,0-1.21,0-.23-.07-.31-.3-.31-.24,0-.33,.08-.32,.32,.02,.4,0,.8,0,1.21,0,.13,.01,.26-.18,.26-1,0-2,0-3.08,0l2.92-4.63c-.46-.14-.75-.03-.96,.37-.26,.49-.58,.94-.87,1.41-.59,.94-1.17,1.87-1.77,2.81-.11,.18-.16,.36-.09,.53,.07,.17,.27,.08,.41,.08,1.09,0,2.19,.01,3.28,0,.25,0,.37,.06,.35,.34-.02,.24,0,.48,0,.72-.01,.22,.03,.34,.3,.34,.28,0,.35-.11,.32-.35-.01-.1,0-.2,0-.3,0-.72,0-.72,.73-.73,.21,0,.35,0,.35-.29,0-.29-.15-.29-.35-.28Z"></path><path class="cls-1" d="M115.79,36.83c-.53,.14-1.07,.29-1.59,.47-.26,.08-.14,.33-.12,.49,.02,.22,.2,.06,.29,.04,.26-.06,.51-.12,.76-.23,.31-.13,.4-.06,.4,.28-.01,1.72,0,3.45,0,5.17,0,.22-.03,.4,.31,.4,.36,0,.34-.18,.34-.42,0-.97,0-1.94,0-2.91,0-.99-.01-1.99,0-2.98,0-.31-.13-.4-.38-.33Z"></path><path class="cls-1" d="M54.72,40.46c0-.99,0-1.99,0-2.98,0-.23-.03-.34-.3-.34-.24,0-.33,.07-.33,.32,0,2,0,4,0,6,0,.26,.1,.3,.33,.31,.27,.01,.3-.1,.3-.33,0-.99,0-1.99,0-2.98Z"></path><path class="cls-1" d="M137.37,39.07c-.46-.09-.91-.04-1.42,.03l1.67-2.27c-.38,.03-.68-.14-.93,.2-.72,1-1.46,1.99-2.17,2.99-.56,.78-.54,1.76,.03,2.53,.49,.66,1.18,.98,1.98,1.02,.99,.06,1.84-.28,2.42-1.11,.91-1.31,.07-3.08-1.57-3.39Zm1.26,2.66c-.21,.69-.91,1.22-1.66,1.28-.09,0-.18,0-.26,0-1.23,0-2.11-.9-1.95-2,.07-.48,.33-.83,.71-1.11,.73-.53,1.83-.52,2.54,.03,.59,.45,.83,1.14,.63,1.8Z"></path><path class="cls-1" d="M121.05,36.73c-1.18,.11-2.15,1.06-2.22,2.15-.07,1.09,.73,2.04,1.92,2.31,.46,.1,.91,.06,1.45-.01l-1.68,2.29c.38-.09,.69,.12,.93-.21,.73-1.02,1.49-2.02,2.22-3.05,.52-.72,.51-1.68,0-2.41-.64-.91-1.55-1.18-2.61-1.09Zm.82,4.01c-.14,.02-.27,.03-.37,.05-1.03,.01-1.86-.63-2.03-1.55-.07-.38,.03-.73,.21-1.05,.7-1.19,2.66-1.25,3.44-.11,.71,1.04,.05,2.44-1.25,2.65Z"></path><path class="cls-1" d="M174.32,17.83c-.44-1.18-1.74-1.82-2.95-1.44-1.08,.33-1.76,1.3-1.69,2.39,.07,1.13,.9,2.02,2.03,2.2,1.07,.17,2.15-.44,2.57-1.44,.06-.14,.11-.28,.17-.42v-.98c-.04-.1-.09-.2-.13-.31Zm-2.29,2.6c-1-.02-1.82-.86-1.79-1.82,.03-.98,.86-1.78,1.85-1.77,.99,.01,1.81,.83,1.8,1.81-.01,1-.85,1.8-1.86,1.78Z"></path><path class="cls-1" d="M172.81,18.78c.32-.13,.38-.42,.33-.72-.05-.3-.27-.45-.56-.47-.39-.03-.78-.01-1.17-.03-.21,0-.29,.06-.28,.28,.01,.58,.01,1.16,0,1.73,0,.22,.07,.28,.28,.28,.22,0,.31-.06,.31-.3,0-.22-.14-.58,.1-.63,.27-.06,.35,.32,.45,.52,.2,.41,.5,.47,.93,.35-.17-.26-.32-.5-.48-.74-.08-.12-.11-.2,.07-.28Zm-.25-.57c-.03,.34-.35,.24-.57,.28-.22,.04-.26-.09-.27-.29-.01-.34,.23-.25,.42-.27,.18,.03,.45-.02,.42,.28Z"></path></g></g></svg>