<svg xmlns="http://www.w3.org/2000/svg" id="Layer_2" data-name="Layer 2" viewBox="0 0 101.3 35.7"><defs><style>      .cls-1 {        fill: #fff;      }    </style></defs><g id="Layer_1-2" data-name="Layer 1"><g><g id="g3977" transform="translate(133.9907,548.2335)"><path id="path3979" class="cls-1" d="M100.02,24.38h-.01c-.89,0-1.75,.73-1.94,1.6-.02,.11-.04,.22-.04,.34h0c0,.71,.51,1.25,1.29,1.25h0c.89,0,1.75-.73,1.94-1.61,.02-.11,.03-.23,.03-.33,0-.71-.51-1.25-1.28-1.25m1.02,1.54c-.16,.76-.95,1.43-1.72,1.43h0c-.67-.01-1.06-.43-1.07-1.03,0-.1,0-.19,.03-.29,.15-.76,.94-1.42,1.71-1.43,.69,.01,1.07,.43,1.08,1.04,0,.09-.01,.19-.03,.29"></path></g><path id="path3983" class="cls-1" d="M99.9,25.21h-.68l-.33,1.53h.34l.1-.49h.27l.22,.49h.4l-.26-.55c.21-.07,.38-.23,.43-.48,.07-.32-.13-.5-.49-.5m.15,.52c-.03,.13-.14,.22-.31,.22h-.33l.09-.45h.33c.17,0,.25,.08,.22,.23"></path><path id="path3987" class="cls-1" d="M72.02,22.09c-.85-.91-.34-2.73,.09-4.78l1.48-6.96h6.09l1.1-5.18h-6.09l1.08-5.17h-5.74l-3.76,17.79c-.57,2.66-.78,4.74,.37,6.97,1.07,2.08,4.74,4.07,9.37,2.81l1.03-4.81c-3.14,.39-4.41-.02-5.03-.68"></path><path id="path3991" class="cls-1" d="M23.43,0l-2.74,12.84H10.63L13.36,0H7.57L1.71,27.57H7.5l2.02-9.55h10.07l-2.03,9.55h5.74L29.16,0h-5.73Z"></path><path id="path3995" class="cls-1" d="M56.49,7.12c-2.01,1.68-3.15,3.87-3.89,7.34l-2.79,13.12h5.74l2.31-10.88c.55-2.54,.96-4.14,1.92-5.11,1.31-1.34,3.22-1.42,5.51-1.23l1.1-5.18c-4.03-1.03-7.56-.02-9.91,1.95"></path><path id="path3999" class="cls-1" d="M101.3,5.17h-17.92l-1.1,5.18h10.4l-13,12.24-1.06,4.98h17.92l1.11-5.18h-10.46l13.07-12.3,1.05-4.93Z"></path><path id="path4003" class="cls-1" d="M40.82,4.76c-1.94,0-4.59,.6-7.2,2.65-5.88,4.61-8.79,20.57,3.83,20.57,3.27,0,6.91-1.03,9.44-2.94l-2.28-3.85c-1.91,1.47-11.53,4.66-10.52-3.13h15.04s1.92-6.25-.84-10.02c-2.35-3.21-6.67-3.27-7.46-3.27m3.73,8.55h-9.2c.32-1.24,2.28-4.29,5.91-3.95,3.9,.36,3.3,3.95,3.3,3.95"></path><path id="path3967" class="cls-1" d="M94.91,35.7H0l1.15-5.13H95.97l-1.07,5.13Z"></path></g></g></svg>