<svg xmlns="http://www.w3.org/2000/svg" xmlns:xlink="http://www.w3.org/1999/xlink" width="306.875" height="39" viewBox="0 0 306.875 39"><defs><clipPath id="clip-path"><rect id="Rectangle_133" data-name="Rectangle 133" width="16" height="39" transform="translate(0.094)" fill="#fff"></rect></clipPath><clipPath id="clip-path-2"><rect id="Rectangle_134" data-name="Rectangle 134" width="16" height="39" transform="translate(-0.12)" fill="#fff"></rect></clipPath></defs><g id="Group_344" data-name="Group 344" transform="translate(-1079 -727)"><g id="Group_341" data-name="Group 341" transform="translate(51 16)"><path id="Path_193" data-name="Path 193" d="M25.589,11.311l-7.2-1.113L15.131,3.358a.612.612,0,0,0-1.113,0l-3.261,6.879L3.6,11.311a.647.647,0,0,0-.318,1.113L8.49,17.792,7.257,25.308a.6.6,0,0,0,.915.636l6.482-3.539L21.1,25.944a.6.6,0,0,0,.875-.636l-1.233-7.515,5.209-5.368A.683.683,0,0,0,25.589,11.311Z" transform="translate(1024.929 717.387)" fill="#00c999"></path><path id="Path_197" data-name="Path 197" d="M25.589,11.311l-7.2-1.113L15.131,3.358a.612.612,0,0,0-1.113,0l-3.261,6.879L3.6,11.311a.647.647,0,0,0-.318,1.113L8.49,17.792,7.257,25.308a.6.6,0,0,0,.915.636l6.482-3.539L21.1,25.944a.6.6,0,0,0,.875-.636l-1.233-7.515,5.209-5.368A.683.683,0,0,0,25.589,11.311Z" transform="translate(1055.223 717.387)" fill="#00c999"></path><path id="Path_198" data-name="Path 198" d="M25.589,11.311l-7.2-1.113L15.131,3.358a.612.612,0,0,0-1.113,0l-3.261,6.879L3.6,11.311a.647.647,0,0,0-.318,1.113L8.49,17.792,7.257,25.308a.6.6,0,0,0,.915.636l6.482-3.539L21.1,25.944a.6.6,0,0,0,.875-.636l-1.233-7.515,5.209-5.368A.683.683,0,0,0,25.589,11.311Z" transform="translate(1085.516 717.387)" fill="#00c999"></path><path id="Path_199" data-name="Path 199" d="M25.589,11.311l-7.2-1.113L15.131,3.358a.612.612,0,0,0-1.113,0l-3.261,6.879L3.6,11.311a.647.647,0,0,0-.318,1.113L8.49,17.792,7.257,25.308a.6.6,0,0,0,.915.636l6.482-3.539L21.1,25.944a.6.6,0,0,0,.875-.636l-1.233-7.515,5.209-5.368A.683.683,0,0,0,25.589,11.311Z" transform="translate(1115.809 717.387)" fill="#00c999"></path><g id="Group_340" data-name="Group 340" transform="translate(1144.906 711)"><g id="Mask_Group_40" data-name="Mask Group 40" transform="translate(0 0)" clip-path="url(#clip-path)"><path id="Path_200" data-name="Path 200" d="M25.589,11.311l-7.2-1.113L15.131,3.358a.612.612,0,0,0-1.113,0l-3.261,6.879L3.6,11.311a.647.647,0,0,0-.318,1.113L8.49,17.792,7.257,25.308a.6.6,0,0,0,.915.636l6.482-3.539L21.1,25.944a.6.6,0,0,0,.875-.636l-1.233-7.515,5.209-5.368A.683.683,0,0,0,25.589,11.311Z" transform="translate(1.196 6.387)" fill="#00c999"></path></g><g id="Mask_Group_41" data-name="Mask Group 41" transform="translate(16.213 0)" clip-path="url(#clip-path-2)"><path id="Path_201" data-name="Path 201" d="M14.575,4.516l-3.143,6.631L4.451,12.194l5.107,5.263L8.371,24.7l6.284-3.431,6.2,3.4-1.183-7.212,5.1-5.261L17.716,11.1,14.575,4.516m0-1.516a.62.62,0,0,1,.557.358L18.392,10.2l7.2,1.113a.683.683,0,0,1,.358,1.113l-5.209,5.368,1.233,7.515a.6.6,0,0,1-.875.636l-6.442-3.539L8.172,25.944a.6.6,0,0,1-.915-.636L8.49,17.792,3.281,12.424A.647.647,0,0,1,3.6,11.311l7.158-1.074,3.261-6.879A.62.62,0,0,1,14.574,3Z" transform="translate(-15.017 6.387)" fill="#00c999"></path></g></g></g><g id="Group_342" data-name="Group 342" transform="translate(266.995 61.429)"><g id="trustpilot-vector-logo" transform="translate(1032.63 431.5)"><path id="Path_194" data-name="Path 194" d="M178.111,300.7h6.652v1.238h-2.619v6.98h-1.436v-6.98H178.1l.011-1.238Zm6.367,2.268h1.227v1.151h.022a1.445,1.445,0,0,1,.23-.471,1.821,1.821,0,0,1,.405-.416,1.794,1.794,0,0,1,.526-.307,1.531,1.531,0,0,1,.581-.121c.153,0,.263.011.318.011a.962.962,0,0,0,.175.022v1.26a2.214,2.214,0,0,0-.285-.044,2.487,2.487,0,0,0-.285-.022,1.521,1.521,0,0,0-.625.132,1.584,1.584,0,0,0-.515.384,2.079,2.079,0,0,0-.351.636,2.682,2.682,0,0,0-.132.877v2.827h-1.315l.022-5.917Zm9.512,5.95H192.7v-.833h-.022a1.837,1.837,0,0,1-.723.723,1.909,1.909,0,0,1-.975.274,2.17,2.17,0,0,1-1.7-.581,2.541,2.541,0,0,1-.526-1.753v-3.781h1.315v3.649a1.555,1.555,0,0,0,.307,1.107,1.082,1.082,0,0,0,.844.329,1.617,1.617,0,0,0,.69-.132,1.191,1.191,0,0,0,.449-.34,1.333,1.333,0,0,0,.252-.515,2.434,2.434,0,0,0,.077-.647v-3.452H194v5.95Zm2.235-1.907a1.034,1.034,0,0,0,.438.811,1.726,1.726,0,0,0,.91.23,3.012,3.012,0,0,0,.416-.033,1.835,1.835,0,0,0,.438-.11.771.771,0,0,0,.34-.241.561.561,0,0,0,.121-.405.589.589,0,0,0-.186-.416,1.552,1.552,0,0,0-.438-.263,3.8,3.8,0,0,0-.614-.164c-.23-.044-.46-.1-.7-.153s-.482-.121-.712-.2a2.042,2.042,0,0,1-.614-.318,1.367,1.367,0,0,1-.427-.5,1.575,1.575,0,0,1-.164-.756,1.3,1.3,0,0,1,.241-.811,1.748,1.748,0,0,1,.6-.526,2.736,2.736,0,0,1,.811-.285,4.646,4.646,0,0,1,.844-.077,3.769,3.769,0,0,1,.877.1,2.215,2.215,0,0,1,.756.318,1.736,1.736,0,0,1,.559.57,1.974,1.974,0,0,1,.285.844h-1.37a.843.843,0,0,0-.427-.636,1.765,1.765,0,0,0-.778-.164c-.088,0-.208.011-.329.022a1.937,1.937,0,0,0-.362.088.857.857,0,0,0-.285.186.438.438,0,0,0-.121.318.482.482,0,0,0,.164.384,1.49,1.49,0,0,0,.438.252,3.8,3.8,0,0,0,.614.164c.23.044.471.1.712.153s.471.121.7.2a1.92,1.92,0,0,1,.614.318,1.581,1.581,0,0,1,.438.493,1.515,1.515,0,0,1,.164.734,1.6,1.6,0,0,1-.241.9,2.049,2.049,0,0,1-.625.6,3.1,3.1,0,0,1-.855.34,4.592,4.592,0,0,1-.931.11,3.926,3.926,0,0,1-1.041-.131,2.652,2.652,0,0,1-.833-.384,1.84,1.84,0,0,1-.548-.647,2.111,2.111,0,0,1-.219-.921h1.326v.011Zm4.329-4.044h1v-1.8h1.315v1.786h1.183v.975h-1.183v3.178a3.368,3.368,0,0,0,.022.362.76.76,0,0,0,.077.252.428.428,0,0,0,.186.153.978.978,0,0,0,.351.055,2.291,2.291,0,0,0,.274-.011,2.381,2.381,0,0,0,.274-.044V308.9c-.142.022-.285.033-.427.044a2.723,2.723,0,0,1-.427.022,2.832,2.832,0,0,1-.833-.1,1.2,1.2,0,0,1-.493-.285,1.019,1.019,0,0,1-.241-.471,3.742,3.742,0,0,1-.077-.658v-3.507h-1v-1h0Zm4.416,0h1.238v.811h.022a1.628,1.628,0,0,1,.767-.745,2.485,2.485,0,0,1,1.074-.23,2.7,2.7,0,0,1,1.227.252,2.3,2.3,0,0,1,.866.679,2.833,2.833,0,0,1,.515,1.008,4.426,4.426,0,0,1,.022,2.389,3.223,3.223,0,0,1-.471,1,2.331,2.331,0,0,1-.8.69,2.365,2.365,0,0,1-1.14.263,3.342,3.342,0,0,1-.57-.055,2.424,2.424,0,0,1-.548-.164,1.967,1.967,0,0,1-.482-.3,1.669,1.669,0,0,1-.373-.416H206.3v2.97h-1.315v-8.153Zm4.592,2.981a2.67,2.67,0,0,0-.11-.778,1.984,1.984,0,0,0-.318-.668,1.753,1.753,0,0,0-.515-.471,1.4,1.4,0,0,0-.712-.175,1.455,1.455,0,0,0-1.249.57,2.6,2.6,0,0,0-.416,1.534,2.838,2.838,0,0,0,.11.833,1.855,1.855,0,0,0,.329.658,1.566,1.566,0,0,0,.526.438,1.486,1.486,0,0,0,.712.164,1.458,1.458,0,0,0,.756-.186,1.766,1.766,0,0,0,.515-.471,1.929,1.929,0,0,0,.285-.668,3.762,3.762,0,0,0,.088-.778Zm2.312-5.249h1.315v1.238h-1.315Zm0,2.268h1.315v5.95h-1.315v-5.95Zm2.488-2.268h1.315v8.219h-1.315V300.7Zm5.326,8.383a3.131,3.131,0,0,1-1.271-.241,2.884,2.884,0,0,1-.942-.647,2.815,2.815,0,0,1-.581-1,3.9,3.9,0,0,1-.208-1.26,3.559,3.559,0,0,1,.208-1.249,2.914,2.914,0,0,1,.581-1,2.628,2.628,0,0,1,.942-.647,3.326,3.326,0,0,1,1.271-.241,3.132,3.132,0,0,1,1.271.241,2.727,2.727,0,0,1,.942.647,2.815,2.815,0,0,1,.581,1,3.829,3.829,0,0,1,.208,1.249,3.579,3.579,0,0,1-.208,1.26,3.1,3.1,0,0,1-.581,1,2.628,2.628,0,0,1-.942.647,3.285,3.285,0,0,1-1.271.241Zm0-1.041a1.516,1.516,0,0,0,.756-.186,1.587,1.587,0,0,0,.526-.482,2.066,2.066,0,0,0,.307-.668,2.99,2.99,0,0,0,0-1.523,1.965,1.965,0,0,0-.307-.668,1.665,1.665,0,0,0-.526-.471,1.546,1.546,0,0,0-.756-.186,1.516,1.516,0,0,0-.756.186,1.678,1.678,0,0,0-.526.471,1.965,1.965,0,0,0-.307.668,2.99,2.99,0,0,0,0,1.523,1.965,1.965,0,0,0,.307.668,1.7,1.7,0,0,0,.526.482,1.435,1.435,0,0,0,.756.186Zm3.4-5.074h1v-1.8H225.4v1.786h1.184v.975H225.4v3.178a3.372,3.372,0,0,0,.022.362.76.76,0,0,0,.077.252.428.428,0,0,0,.186.153.978.978,0,0,0,.351.055,2.291,2.291,0,0,0,.274-.011,2.38,2.38,0,0,0,.274-.044V308.9c-.142.022-.285.033-.427.044a2.723,2.723,0,0,1-.427.022,2.832,2.832,0,0,1-.833-.1,1.2,1.2,0,0,1-.493-.285,1.019,1.019,0,0,1-.241-.471,3.744,3.744,0,0,1-.077-.658v-3.507h-1v-1h0Z" transform="translate(-140.33 -46.48)"></path><g id="Group_345" data-name="Group 345"><path id="Path_195" data-name="Path 195" d="M36.247,254.22H30.231l-1.852-5.72-1.863,5.72-6.016-.011,4.866,3.54-1.863,5.72,4.865-3.54,4.866,3.54-1.852-5.72Z" fill="#9e9e9e"></path><path id="Path_196" data-name="Path 196" d="M95.819,334.193,95.4,332.9l-3,2.181Z" transform="translate(-64.021 -75.151)" fill="#4e4e4e"></path></g></g><path id="Path_477" data-name="Path 477" d="M-36.042-3.1h1.282v.958h-1.282V0h-1.181V-2.146h-4.208v-.692l4.139-6.4h1.25Zm-4.056,0h2.875V-7.636l-.14.254Zm6.544,2.488a.735.735,0,0,1,.181-.508.689.689,0,0,1,.543-.2.71.71,0,0,1,.549.2.721.721,0,0,1,.187.508.681.681,0,0,1-.187.489.723.723,0,0,1-.549.2.7.7,0,0,1-.543-.2A.7.7,0,0,1-33.554-.616Zm3.815-4.018.47-4.608h4.735v1.085h-3.739l-.279,2.52a2.983,2.983,0,0,1,1.542-.4A2.55,2.55,0,0,1-25-5.2a3.271,3.271,0,0,1,.743,2.257A3.158,3.158,0,0,1-25.032-.7a2.811,2.811,0,0,1-2.155.822,2.921,2.921,0,0,1-2-.679,2.711,2.711,0,0,1-.882-1.879h1.111a1.865,1.865,0,0,0,.565,1.2,1.757,1.757,0,0,0,1.206.4A1.585,1.585,0,0,0-25.9-1.39a2.335,2.335,0,0,0,.467-1.542,2.143,2.143,0,0,0-.5-1.489,1.717,1.717,0,0,0-1.343-.562,1.936,1.936,0,0,0-1.206.336l-.311.254ZM-19.951-3.5a4.057,4.057,0,0,1,.4-1.815,2.96,2.96,0,0,1,1.1-1.244A3.007,3.007,0,0,1-16.834-7a2.9,2.9,0,0,1,2.269.971A3.736,3.736,0,0,1-13.7-3.44v.083a4.092,4.092,0,0,1-.384,1.8,2.916,2.916,0,0,1-1.1,1.241,3.041,3.041,0,0,1-1.641.444,2.889,2.889,0,0,1-2.263-.971,3.718,3.718,0,0,1-.866-2.571Zm1.181.14a2.938,2.938,0,0,0,.53,1.834,1.7,1.7,0,0,0,1.419.692,1.686,1.686,0,0,0,1.422-.7A3.213,3.213,0,0,0-14.873-3.5a2.933,2.933,0,0,0-.536-1.831,1.705,1.705,0,0,0-1.425-.7,1.686,1.686,0,0,0-1.4.692A3.189,3.189,0,0,0-18.77-3.358ZM-7.985-.679A2.494,2.494,0,0,1-10,.127,2.135,2.135,0,0,1-11.67-.511,2.761,2.761,0,0,1-12.251-2.4V-6.868h1.174v4.437q0,1.562,1.27,1.562a1.758,1.758,0,0,0,1.79-1v-5h1.174V0H-7.96Zm4.52-7.852v1.663h1.282v.908H-3.466V-1.7a.953.953,0,0,0,.171.62A.721.721,0,0,0-2.71-.87a2.843,2.843,0,0,0,.559-.076V0a3.424,3.424,0,0,1-.9.126A1.462,1.462,0,0,1-4.24-.349,2.045,2.045,0,0,1-4.64-1.7V-5.96h-1.25v-.908h1.25V-8.531ZM2.095-3.5a4.057,4.057,0,0,1,.4-1.815A2.96,2.96,0,0,1,3.6-6.557,3.007,3.007,0,0,1,5.211-7a2.9,2.9,0,0,1,2.269.971A3.736,3.736,0,0,1,8.347-3.44v.083a4.092,4.092,0,0,1-.384,1.8,2.916,2.916,0,0,1-1.1,1.241A3.041,3.041,0,0,1,5.224.127,2.889,2.889,0,0,1,2.961-.844a3.718,3.718,0,0,1-.866-2.571Zm1.181.14a2.938,2.938,0,0,0,.53,1.834,1.7,1.7,0,0,0,1.419.692,1.686,1.686,0,0,0,1.422-.7A3.213,3.213,0,0,0,7.173-3.5a2.933,2.933,0,0,0-.536-1.831,1.705,1.705,0,0,0-1.425-.7,1.686,1.686,0,0,0-1.4.692A3.189,3.189,0,0,0,3.275-3.358ZM10.4,0V-5.96H9.312v-.908H10.4v-.7a2.339,2.339,0,0,1,.59-1.708,2.23,2.23,0,0,1,1.669-.6,3.1,3.1,0,0,1,.806.107L13.4-8.83a3.373,3.373,0,0,0-.635-.057,1.146,1.146,0,0,0-.882.334,1.356,1.356,0,0,0-.311.958v.726h1.466v.908H11.572V0ZM17.97-4.634l.47-4.608h4.735v1.085H19.437l-.279,2.52a2.983,2.983,0,0,1,1.542-.4,2.55,2.55,0,0,1,2.006.835,3.271,3.271,0,0,1,.743,2.257A3.158,3.158,0,0,1,22.677-.7a2.811,2.811,0,0,1-2.155.822,2.921,2.921,0,0,1-2-.679,2.711,2.711,0,0,1-.882-1.879h1.111a1.865,1.865,0,0,0,.565,1.2,1.757,1.757,0,0,0,1.206.4,1.585,1.585,0,0,0,1.285-.559,2.335,2.335,0,0,0,.467-1.542,2.143,2.143,0,0,0-.5-1.489,1.717,1.717,0,0,0-1.343-.562,1.936,1.936,0,0,0-1.206.336l-.311.254ZM27.758-3.5a4.057,4.057,0,0,1,.4-1.815,2.96,2.96,0,0,1,1.1-1.244A3.007,3.007,0,0,1,30.875-7a2.9,2.9,0,0,1,2.269.971,3.736,3.736,0,0,1,.866,2.583v.083a4.092,4.092,0,0,1-.384,1.8,2.916,2.916,0,0,1-1.1,1.241,3.041,3.041,0,0,1-1.641.444,2.889,2.889,0,0,1-2.263-.971,3.718,3.718,0,0,1-.866-2.571Zm1.181.14a2.938,2.938,0,0,0,.53,1.834,1.7,1.7,0,0,0,1.419.692,1.686,1.686,0,0,0,1.422-.7A3.213,3.213,0,0,0,32.836-3.5,2.933,2.933,0,0,0,32.3-5.329a1.705,1.705,0,0,0-1.425-.7,1.686,1.686,0,0,0-1.4.692A3.189,3.189,0,0,0,28.939-3.358Zm7.655-3.51L36.632-6A2.5,2.5,0,0,1,38.689-7q2.177,0,2.2,2.457V0H39.711V-4.545a1.581,1.581,0,0,0-.34-1.1A1.361,1.361,0,0,0,38.333-6a1.7,1.7,0,0,0-1,.3,2.069,2.069,0,0,0-.673.8V0H35.483V-6.868Z" transform="translate(1006.13 693.071)" fill="#1f1e33"></path></g></g></svg>