<svg xmlns="http://www.w3.org/2000/svg" xmlns:xlink="http://www.w3.org/1999/xlink" id="e3mMJQXwGKt1" viewBox="0 0 420 354"><defs><filter id="e3mMJQXwGKt4-filter" x="-150%" width="400%" y="-150%" height="400%"><feGaussianBlur id="e3mMJQXwGKt4-filter-drop-shadow-0-blur" stdDeviation="10,10"></feGaussianBlur></filter><filter id="e3mMJQXwGKt29-filter" x="-150%" width="400%" y="-150%" height="400%"><feGaussianBlur id="e3mMJQXwGKt29-filter-drop-shadow-0-blur" stdDeviation="10,10"></feGaussianBlur></filter><filter id="e3mMJQXwGKt34-filter" x="-150%" width="400%" y="-150%" height="400%"><feGaussianBlur id="e3mMJQXwGKt34-filter-drop-shadow-0-blur" stdDeviation="10,10"></feGaussianBlur></filter></defs><g transform="translate(-10449-13958)"><g><g transform="translate(10480 13977)" filter="url(#e3mMJQXwGKt4-filter)"><circle r="81" transform="translate(90 87)" fill="#fff"></circle></g><g transform="translate(10220 8602.57)"><g transform="translate(289 5401)"><path d="M-86.763,-100l1.969,6.061h6.373l-5.156,3.746l1.969,6.061-5.156-3.746-5.156,3.746l1.969-6.061-5.156-3.746h6.373Z" transform="translate(147.737 100)" fill="#00c999"></path><path d="M-86.763,-100l1.969,6.061h6.373l-5.156,3.746l1.969,6.061-5.156-3.746-5.156,3.746l1.969-6.061-5.156-3.746h6.373Z" transform="translate(174.053 107.051)" fill="#00c999"></path><path d="M-86.763,-100l1.969,6.061h6.373l-5.156,3.746l1.969,6.061-5.156-3.746-5.156,3.746l1.969-6.061-5.156-3.746h6.373Z" transform="translate(193.318 126.316)" fill="#00c999"></path><path d="M-86.763,-100l1.969,6.061h6.373l-5.156,3.746l1.969,6.061-5.156-3.746-5.156,3.746l1.969-6.061-5.156-3.746h6.373Z" transform="translate(200.369 152.632)" fill="#00c999"></path><path d="M-86.763,-100l1.969,6.061h6.373l-5.156,3.746l1.969,6.061-5.156-3.746-5.156,3.746l1.969-6.061-5.156-3.746h6.373Z" transform="translate(193.318 178.948)" fill="#00c999"></path><path d="M-86.763,-100l1.969,6.061h6.373l-5.156,3.746l1.969,6.061-5.156-3.746-5.156,3.746l1.969-6.061-5.156-3.746h6.373Z" transform="translate(174.053 198.212)" fill="#00c999"></path><path d="M-86.763,-100l1.969,6.061h6.373l-5.156,3.746l1.969,6.061-5.156-3.746-5.156,3.746l1.969-6.061-5.156-3.746h6.373Z" transform="translate(147.737 205.264)" fill="#00c999"></path><path d="M-86.763,-100l1.969,6.061h6.373l-5.156,3.746l1.969,6.061-5.156-3.746-5.156,3.746l1.969-6.061-5.156-3.746h6.373Z" transform="translate(121.422 198.212)" fill="#00c999"></path><path d="M-86.763,-100l1.969,6.061h6.373l-5.156,3.746l1.969,6.061-5.156-3.746-5.156,3.746l1.969-6.061-5.156-3.746h6.373Z" transform="translate(102.157 178.948)" fill="#00c999"></path><path d="M-86.763,-100l1.969,6.061h6.373l-5.156,3.746l1.969,6.061-5.156-3.746-5.156,3.746l1.969-6.061-5.156-3.746h6.373Z" transform="translate(95.106 152.632)" fill="#00c999"></path><path d="M-86.763,-100l1.969,6.061h6.373l-5.156,3.746l1.969,6.061-5.156-3.746-5.156,3.746l1.969-6.061-5.156-3.746h6.373Z" transform="translate(121.422 107.051)" fill="#00c999"></path><path d="M-86.763,-100l1.969,6.061h6.373l-5.156,3.746l1.969,6.061-5.156-3.746-5.156,3.746l1.969-6.061-5.156-3.746h6.373Z" transform="translate(102.157 126.316)" fill="#00c999"></path></g><g transform="translate(324.484 5433.43)"><g><g><path d="M60.127,38.74c-2.538935-2.29426-3.455832-5.886588-2.327-9.117.129897-.372709.09869-.78268-.086123-1.131434s-.506532-.604776-.887877-.706566c-2.467603-.661405-4.507394-2.396637-5.555827-4.726296s-.994527-5.007133.146827-7.292704c.198986-.397136.200523-.864537.004152-1.262973s-.567987-.681927-1.004152-.766027c-2.380117-.460536-4.45074-1.914545-5.69197-3.996947s-1.535175-4.595412-.80803-6.908053c.115265-.36615.07727-.763378-.105316-1.101039s-.494181-.586942-.863684-.690961C28.709826,-2.969726,13.808901,4.787271,8.926894,18.750419s1.939256,29.314986,15.573994,35.05061s29.378799-.123827,35.946112-13.378029c.28257-.569318.151795-1.257115-.32-1.683ZM35.361,53.149c-9.643185-.009825-18.432112-5.531329-22.626324-14.214629s-3.055491-19.000061,2.931536-26.559599s15.768595-11.031309,25.181788-8.937772c-.947171,5.447154,2.168807,10.784185,7.378,12.637-1.82318,5.64653,1.009305,11.744653,6.5,13.994-.757743,3.571897.249708,7.290197,2.707,9.991-4.410351,8.070966-12.874626,13.090781-22.072,13.09Z" transform="translate(-7.368 0)" fill="#00c999"></path><path d="M35.361,56.735c-11.208577-.007272-21.390524-6.529494-26.083565-16.708276s-3.041016-22.157189,4.23207-30.685639s18.840389-12.05108,29.632495-9.024085c.564921.158817,1.041385.539757,1.320641,1.055872s.337472,1.123357.161359,1.683128c-.663135,2.108959-.395023,4.400659.737006,6.299596s3.020437,3.224718,5.190994,3.644404c.666742.128039,1.235066.560886,1.535702,1.16962s.298896,1.323118-.004702,1.93038c-1.04018,2.083927-1.089055,4.524927-.133128,6.648821s2.815501,3.705935,5.065128,4.309179c.58282.156362,1.074157.548449,1.355945,1.082043s.328552,1.160458.129055,1.729957c-1.033553,2.94614-.195059,6.224782,2.126,8.313.718992.652402.91853,1.702321.489,2.573-4.850867,9.787416-14.830428,15.979208-25.754,15.979Zm0-55.985c-13.438626.001774-24.868422,9.802804-26.920054,23.083899s5.887869,26.074248,18.699528,30.131102s26.667723-1.834659,32.634526-13.876001c.13243-.26839.070798-.59206-.151-.793-2.770082-2.492116-3.770695-6.405037-2.537-9.921.061069-.175622.046293-.368737-.040783-.533024s-.238596-.284925-.418217-.332976c-2.68576-.71933-4.906019-2.607659-6.047167-5.143113s-1.082342-5.449536.160167-7.936887c.093575-.187114.094231-.40723.001771-.594898s-.267388-.321278-.472771-.361102c-2.591069-.500087-4.845591-2.082124-6.197131-4.348633s-1.671638-5.002062-.879869-7.519367c.054069-.172534.036-.359607-.050092-.518603s-.232873-.276374-.406908-.325397c-2.400641-.672152-4.882037-1.012313-7.375-1.011Zm0,53.149c-9.930881-.009698-18.982223-5.695657-23.301757-14.637922s-3.146957-19.566859,3.018682-27.351933s16.239091-11.360335,25.933075-9.204145l.7.155-.123.705c-.900628,5.089173,2.0145,10.082425,6.889,11.8l.689.244-.226.7c-1.694024,5.27379.951082,10.963707,6.075,13.068l.581.237-.131.614c-.704588,3.335513.235878,6.806457,2.528,9.33l.36.4-.257.469C53.548778,48.734816,44.831852,53.900558,35.361,53.9Zm0-50.313c-11.849598.002229-21.985485,8.515676-24.033956,20.186869s4.582424,23.127465,15.723014,27.164822s23.571535-.510892,29.475942-10.784691c-2.224153-2.682845-3.186312-6.193031-2.641-9.635-5.270491-2.477146-8.031185-8.355172-6.572-13.993-4.934932-2.088903-7.908051-7.174983-7.307-12.5-1.530928-.293165-3.086255-.440159-4.645-.439Z" transform="translate(-7.368 0)" fill="#00c999"></path><path d="M57.125,155c-2.450487,0-4.437,1.986513-4.437,4.437s1.986513,4.437,4.437,4.437s4.437-1.986513,4.437-4.437c-.002755-2.449345-1.987655-4.434245-4.437-4.437Zm0,6.038c-.64714,0-1.230558-.389827-1.478207-.987707s-.110761-1.286067.346836-1.743664s1.145785-.594486,1.743664-.346836.987707.831067.987707,1.478207c-.001655.882484-.717515,1.597002-1.6,1.597Z" transform="translate(-44.204-125.98)" fill="#00c999"></path><path d="M129.3,68.693c.000404-2.046356-1.232033-3.891422-3.122543-4.674715s-4.066718-.350531-5.51371,1.096462-1.879756,3.623201-1.096462,5.51371s2.628359,3.122947,4.674715,3.122543c2.792086-.003306,5.054694-2.265914,5.058-5.058Zm-7.281,0c0-.898715.541373-1.708937,1.371677-2.05286s1.786027-.153819,2.421514.481669.825593,1.591209.481669,2.421514-1.154145,1.371677-2.05286,1.371677c-1.226492-.001653-2.220347-.995508-2.222-2.222Z" transform="translate(-98.25-51.721)" fill="#00c999"></path><path d="M140.7,187.247c-3.682082,0-6.667,2.984918-6.667,6.667s2.984918,6.667,6.667,6.667s6.667-2.984918,6.667-6.667c-.003858-3.680483-2.986517-6.663142-6.667-6.667Zm0,10.5c-2.115251,0-3.83-1.714749-3.83-3.83s1.714749-3.83,3.83-3.83s3.83,1.714749,3.83,3.83c-.003857,2.113165-1.716833,3.824799-3.83,3.827Z" transform="translate(-110.317-152.192)" fill="#00c999"></path></g></g></g></g></g><g><g transform="translate(10480 13977)" filter="url(#e3mMJQXwGKt29-filter)"><circle r="81" transform="translate(261 183)" fill="#fff"></circle></g><g transform="translate(9539.06 8413.57)"><path d="M8453.6,18546.6h41.767v40.371l51.688,44.42.127.217l1.376,2.357l1.479,2.406l2.619,2.615-1.581,3.164-.173.172-1.986,1.984.263,1.172-.038.271-.449,3.16-1.69,1.857-.3.33v.148l1.016,1.5-.348.475.252.063.519.125l1.012,1.334v2.781l-1.692,1.5h-1.3l-1.292.488-.206.018-20.5,1.779h-2.624l-2.048-2.963-.023-.016v-.02l-.76-1.1h.641l-.251-2.322-1.668-2.832-.847-.795h-1.551l-.484-1.7-1.293-.775-.1-.086-1.055-.914-.042-.016-1.828.965-1.981-1.979v-1.9l-.088-.1h-1.74l-.115-.018-3-.473-.262-.164-1.8-1.131-1.213-1.42-.046-.068-.632-.926-1.727-.525h-2.606l-.274-.113-1.585-.65h-1.207l-2.36.586-1.245-1.312-2.326-1.072l1.239-2.479.149-.225-.192-.262-.752-2.152.333-.939h-.628l-1.779-3.111.181-.539-.335-.217-.115-.115-1.223-1.227-1.235-1.057-.083-.1-1.241-1.5-2.187-3.121-.916-1.178-1.045-.437-.249-.346-1.021-1.43-.066-.3-.458-2.1v-2.07l1.354-1.086.193-.768-.063-.205-.035-.025h-2.011l-1.534-1.275-.087-.105-1.319-1.58-.046-.068-1.158-1.746.6-1.193-.552-.6-.1-.344-.394-1.387v-2.7l-.26-.2-1.032-.793-1.493-.912-1.124-.791-.989-1.549v-1.869l-1.264-1.641-1.992-1.582-.092-.107-3.572-4.131v-1.533l-.844-2.955v-5.07l-1.657-3.168-.966-1.52-2.61-2.15v-4.523l1.279-2.561.895-1.639-.522-2.752.079-.318.583-2.363.032-.086.548-1.441-.646-2.93Zm38.767,3h-35.767v.975l.769,3.484-.834,2.2-.461,1.869.6,3.166-.258.471-1.139,2.086-.926,1.854v2.4l1.886,1.553l1.29,2.027.029.057l2.028,3.877v5.391l.844,2.955v.834l2.75,3.18l2.061,1.637.111.146l2,2.6v2.014l.2.311.562.393l1.139.7v-2.463h3.517l1.678,1.852v2.174l-.419.461.144.2l1.543,2.182.066.174.4,1.029l1.632,3.291h-3.341l-.719-.338-.594,1.178.149.225l1.127,1.35.489.408h1.876l1.648,1.158.616,1.99-.4,1.576v2.24h-1.236l.294,1.346.414.58.984.41l1.469,1.889l2.14,3.055l1.082,1.313l1.129.963.042.043l1.151,1.154l2.027,1.3-.5,1.48.248.432h1.075l1.2,2.422-.541,1.525.258.734l1.163,1.6-.923,1.383.424.447l1.019-.254h2.166l.274.113l1.585.65h2.462l.213.064l2.951.9.3.438.883,1.295.811.947l1.15.725l2.279.357h2.82l1.773,1.924v1.117l.579-.3l1.815.652.211.184l1.167,1.012l2.086,1.248.189.668h.475l2.024,1.9.109.184l2.1,3.574.035.32.269,2.473.208.158.045.039l1.556,1.387l20.073-1.742l1.417-.535h.542v-.008l-1.076-.262-1.8-2.02.775-1.057-.348-.516v-2.219l1.072-1.191l1.074-1.18.28-1.975-.5-2.246l2.983-2.98.4-.793-1.34-1.338-.093-.15-1.6-2.6-1.258-2.156-52.35-44.986Z" transform="translate(-7299.0645-12857.377)" fill="#00c999"></path></g></g><g><g transform="translate(10480 13977)" filter="url(#e3mMJQXwGKt34-filter)"><circle r="59.5" transform="translate(108.5 242.5)" fill="#fff"></circle></g><path d="M3.417,50.69c-.519691-.001951-.979064-.338206-1.138-.833L0.057,42.875c-.196496-.628205.149723-1.297444.776-1.5l22.625-6.809c.628459-.199445,1.299703.147812,1.5.776l.235.737l18.019-5.734-.453-1.422c-.199445-.628459.147812-1.299703.776-1.5L46.7,26.412l-.586-1.84c-.199445-.628459.147812-1.299703.776-1.5l1.9-.605-.972-3.054-.14.044c-.298711.095448-.61041.144024-.924.144v0c-1.326635.00276-2.501225-.856715-2.9-2.122l-1.147-3.606c-1.004271-3.167688.746741-6.550233,3.913-7.559l18.945-6.03c1.520208-.484925,3.170846-.345501,4.588176.387549s2.485032,1.999564,2.967824,3.520451L74.269,7.8c.507612,1.602248-.377114,3.313107-1.978,3.825l-.14.044.972,3.054l1.9-.606c.628205-.196496,1.297444.149723,1.5.776l4.555,14.312c.199445.628459-.147812,1.299703-.776,1.5l-1.9.606.972,3.054.14-.044c.769652-.245419,1.605303-.17473,2.322793.196489s1.257926,1.012498,1.502207,1.782511l1.147,3.606c.484121,1.520351.344339,3.17076-.388584,4.588034s-1.998929,2.485271-3.519416,2.968966l-18.945,6.03c-.590063.18815-1.205666.283948-1.825.284v0c-2.621128.00418-4.941606-1.693563-5.731-4.193L52.93,45.978c-.509989-1.60245.375576-3.31493,1.978-3.825l.14-.044-.972-3.054-1.9.606c-.628205.196496-1.297444-.149723-1.5-.776l-.586-1.84-3.17,1.007c-.628205.196496-1.297444-.149723-1.5-.776l-.453-1.423-18.02,5.734.234.737c.196496.628205-.149723,1.297444-.776,1.5L3.78,50.634c-.117376.037324-.239832.056216-.363.056Zm-.721-7.4l1.5,4.7l20.345-6.08-1.5-4.7Zm65.239-2.773l-12.3,3.916c-.343961.109486-.534178.476941-.425.821l1.147,3.606c.474924,1.506967,1.873971,2.530532,3.454,2.527v0c.373334-.000379.744371-.058396,1.1-.172l18.945-6.029c1.908115-.607599,2.962765-2.64662,2.356-4.555l-1.147-3.606c-.11217-.342705-.478629-.531946-.823-.425ZM56.354,38.33l.972,3.054L77.1,35.091l-.971-3.054Zm-30.434.026l.3.952l18.019-5.734-.3-.952Zm25-6.593l1.673,5.256L78.448,28.79l-3.83-12.034-25.861,8.23.585,1.837ZM45.4,29.335l1.934,6.076l2.027-.645-1.933-6.076Zm4.7-10.649l.972,3.054l19.772-6.293-.972-3.054ZM67.391,2.39c-.373334.000379-.744371.058396-1.1.172L47.344,8.592c-1.906059.60943-2.959741,2.646131-2.356,4.554l1.147,3.606c.111729.34257.477888.531886.822.425L71.566,9.346c.34371-.110385.533641-.477735.425-.822L70.844,4.918c-.474458-1.50701-1.873069-2.530957-3.453-2.528Z" transform="matrix(.93358-.358368 0.358368 0.93358 10535.5 14206.3)" fill="#00c999"></path></g></g></svg>