<svg xmlns="http://www.w3.org/2000/svg" id="Layer_2" data-name="Layer 2" viewBox="0 0 110.59 40"><defs><style>      .cls-1 {        fill: #fff;        fill-rule: evenodd;      }    </style></defs><g id="Layer_1-2" data-name="Layer 1"><g><path class="cls-1" d="M5.34,36.67h1.91l1.53,3.33h2.3l-1.66-3.73c.82-.29,1.19-1.17,1.19-2.59,0-1.28-.22-1.75-.58-2.11-.31-.29-.77-.4-1.51-.4H3.26v8.83h2.08v-3.33Zm2.86-1.64c-.07,.05-.2,.11-.64,.11h-2.22v-2.36h2.22c.44,0,.57,.05,.64,.11,.13,.13,.24,.36,.24,1.06s-.11,.96-.24,1.08Zm14.42-3.86c.88,0,1.29,.13,1.6,.43,.51,.47,.88,1.28,.88,3.98s-.36,3.51-.88,3.98c-.31,.31-.73,.43-1.6,.43h-2.77c-.88,0-1.29-.13-1.6-.43-.51-.49-.88-1.28-.88-3.98s.36-3.51,.88-3.98c.31-.31,.73-.43,1.6-.43h2.77Zm-2.84,7.08c.09,.07,.2,.11,.62,.11h1.7c.4,.02,.53-.04,.62-.11,.11-.11,.27-.43,.27-2.67s-.16-2.56-.27-2.67c-.09-.09-.2-.13-.62-.13h-1.7c-.4,0-.53,.04-.62,.13-.11,.11-.27,.41-.27,2.67s.16,2.54,.27,2.67Zm17.28-7.08h-5.1v8.81h5.14c.71,0,1.26-.16,1.59-.47,.38-.36,.62-.85,.62-2,0-1.41-.47-1.86-1.51-2.05v-.02c.93-.22,1.42-.68,1.42-1.95,0-.99-.2-1.51-.6-1.89-.31-.31-.8-.43-1.55-.43Zm-.16,3.46c-.09,.07-.2,.09-.53,.09h-2.35v-1.98h2.35c.35,0,.46,.04,.53,.11,.11,.09,.18,.29,.18,.86,0,.61-.07,.81-.18,.92Zm-.46,1.55c.33,0,.44,.04,.53,.11,.11,.13,.2,.29,.18,1.03,0,.74-.07,.88-.18,.99-.07,.09-.22,.11-.53,.11h-2.42v-2.23h2.42Zm14.09-5.01c.88,0,1.29,.13,1.6,.43,.51,.47,.88,1.28,.88,3.98s-.36,3.51-.88,3.98c-.31,.31-.73,.43-1.6,.43h-2.77c-.88,0-1.29-.13-1.6-.43-.51-.49-.88-1.28-.88-3.98s.36-3.51,.88-3.98c.31-.31,.73-.43,1.6-.43h2.77Zm-2.84,7.08c.09,.07,.2,.11,.62,.11h1.7c.4,.02,.53-.04,.62-.11,.11-.11,.27-.43,.27-2.67s-.16-2.56-.27-2.67c-.09-.09-.2-.13-.62-.13h-1.7c-.4,0-.53,.04-.62,.13-.11,.11-.27,.41-.27,2.67s.16,2.54,.27,2.67Zm15.45,1.75v-7.19h2.75v-1.64h-7.55v1.64h2.72v7.19h2.08Zm9.42-8.83h2.1v8.83h-2.1v-8.83Zm14.59,8.83c.89,0,1.29-.13,1.6-.43,.47-.43,.67-1.08,.73-2.85h-2.01c-.04,1.23-.15,1.42-.26,1.53-.09,.07-.22,.13-.62,.11h-1.66c-.42,0-.53-.04-.62-.11-.11-.13-.27-.41-.27-2.67s.16-2.56,.27-2.67c.09-.09,.22-.13,.62-.13h1.66c.42,0,.53,.04,.62,.13,.11,.11,.22,.34,.26,1.44h1.99c-.02-1.64-.24-2.31-.71-2.76-.31-.31-.71-.43-1.6-.43h-2.73c-.88,0-1.29,.13-1.6,.43-.51,.47-.88,1.26-.88,3.98s.36,3.5,.88,3.98c.31,.31,.73,.43,1.6,.43h2.73Zm13.32,0c.71,0,1.11-.14,1.39-.41,.4-.4,.6-1.03,.6-2.25s-.15-1.69-.49-2.04c-.27-.27-.62-.38-1.24-.45l-2.75-.27c-.38-.04-.53-.05-.62-.14-.11-.11-.13-.29-.13-.74s.02-.74,.11-.83c.07-.09,.22-.11,.55-.11h1.77c.36,0,.47,.05,.55,.13,.09,.09,.13,.29,.15,1.08h1.97c-.02-1.55-.18-2.04-.55-2.41-.27-.27-.73-.38-1.49-.38h-3.08c-.67,0-1.09,.14-1.37,.41-.42,.41-.62,1.05-.62,2.16,0,1.19,.15,1.66,.49,2.02,.27,.27,.64,.4,1.26,.47l2.72,.27c.35,.02,.55,.07,.62,.14,.13,.11,.15,.29,.15,.74,0,.52-.04,.79-.13,.88-.09,.09-.25,.11-.62,.11h-1.9c-.36,0-.49-.04-.57-.11-.07-.07-.13-.29-.15-1.15h-1.97c.02,1.59,.16,2.13,.53,2.49,.31,.29,.75,.4,1.49,.4h3.34Z"></path><path class="cls-1" d="M0,0H18.71c2.22,0,3.73,.38,4.7,1.3,1.18,1.13,1.8,2.74,1.8,5.71,0,3.82-1.48,5.22-4.32,5.9v.07c3.11,.61,4.55,1.98,4.55,6.21,0,3.49-.75,4.95-1.89,6.05-1,.95-2.66,1.4-4.77,1.4H3.26V5.52L0,0ZM9.53,4.75h7.12c1.04,0,1.38,.11,1.62,.31,.31,.31,.55,.88,.55,2.63s-.27,2.43-.58,2.77c-.27,.23-.58,.27-1.58,.27h-7.12V4.75Zm8.94,16.8c-.27,.27-.66,.31-1.62,.31h-7.32v-6.75h7.32c1,0,1.35,.11,1.62,.34,.31,.34,.58,.85,.58,3.11s-.27,2.68-.58,2.99Zm27.57-.72c.46-.45,.69-.95,.69-4.64h-.02V0h6.32V15.75c0,6.28-.69,7.89-2.11,9.29-1.24,1.22-2.93,1.6-6.43,1.6h-5.85c-3.46,0-5.15-.38-6.36-1.57-1.42-1.44-2.08-3.01-2.08-9.33V0h6.28V16.18c0,3.65,.31,4.23,.73,4.64,.38,.4,1.04,.54,3.19,.54h2.51c2.08,0,2.73-.16,3.11-.54ZM65.27,0h-6.32V26.64h6.32V0Zm25.03,21.12v5.53h-19.11V0h6.28V21.12h12.82Zm-2.47-15.59V0h22.77l-3.26,5.53h-5.56V26.64h-6.27V5.53h-7.69Z"></path></g></g></svg>