<svg xmlns="http://www.w3.org/2000/svg" id="Layer_2" data-name="Layer 2" viewBox="0 0 305.96 42.11"><defs><style>      .cls-1 {        fill: #fff;      }    </style></defs><g id="Layer_1-2" data-name="Layer 1"><g><g><polygon class="cls-1" points="68.18 3.71 61.2 3.71 61.2 37.88 81.99 37.88 81.99 31.92 68.18 31.92 68.18 3.71"></polygon><path class="cls-1" d="M95.23,12.35c-1.33,0-2.81,.13-4.42,.39s-2.95,.62-4.03,1.07l1.22,5.28c.91-.39,1.95-.68,3.12-.88,1.17-.2,2.28-.29,3.32-.29,3.32,0,4.98,1.46,4.98,4.39v1.17c-1.63-.26-3.08-.39-4.34-.39-2.96,.03-5.34,.73-7.13,2.1s-2.68,3.24-2.68,5.61,.87,4.12,2.61,5.54,4.22,2.12,7.44,2.12c2.21,0,4.25-.21,6.13-.63,1.87-.42,3.38-.93,4.52-1.51v-13.57c0-3.32-.91-5.88-2.73-7.69-1.83-1.81-4.5-2.71-8.01-2.71Zm4.19,20.6c-.85,.46-1.98,.68-3.42,.68-1.27,0-2.26-.27-2.98-.81s-1.07-1.31-1.07-2.32c0-1.07,.37-1.87,1.12-2.39,.75-.52,1.71-.78,2.88-.78s2.26,.13,3.47,.39v5.23Z"></path><path class="cls-1" d="M138.38,23.65c-.78,3.17-1.85,6.17-3.22,9.01-2.47-5.92-3.94-12.5-4.39-19.72h-6.25c.13,1.92,.33,3.74,.59,5.47-.26,2.31-.76,4.77-1.49,7.37-.73,2.6-1.62,4.9-2.66,6.88-1.3-2.86-2.34-5.88-3.12-9.05-.78-3.17-1.29-6.73-1.51-10.67h-6.64c.29,3.81,.74,7.06,1.34,9.76s1.39,5.23,2.37,7.59,2.29,4.89,3.95,7.59h6.49c1.56-2.9,2.88-6.04,3.95-9.42,1.01,2.67,2.44,5.81,4.3,9.42h6.74c2.38-4.3,4.13-8.3,5.27-12.01s1.94-8.02,2.39-12.94h-6.69c-.17,3.98-.64,7.55-1.42,10.72Z"></path><rect class="cls-1" x="162.84" y="3.71" width="6.98" height="34.17"></rect><path class="cls-1" d="M193.89,14.94c-1.95-1.73-4.72-2.59-8.3-2.59-1.85,0-3.77,.2-5.76,.59-1.99,.39-3.74,.91-5.27,1.56v23.38h6.69V18.79c1.27-.59,2.7-.88,4.3-.88,3.03,0,4.54,1.64,4.54,4.93v15.03h6.74v-15.51c0-3.23-.99-5.7-2.94-7.42Z"></path><path class="cls-1" d="M212.05,22.65c-1.17-.33-2.05-.62-2.64-.88-.59-.26-.97-.54-1.15-.85s-.27-.64-.27-1c0-.68,.31-1.19,.93-1.51,.62-.33,1.45-.49,2.49-.49,1.63,0,3.89,.44,6.78,1.32l.73-5.47c-1.11-.42-2.42-.76-3.93-1.02s-2.89-.39-4.12-.39c-2.99,0-5.33,.67-7,2-1.68,1.33-2.51,3.24-2.51,5.71,0,2.08,.63,3.71,1.88,4.88,1.25,1.17,3.02,2.05,5.3,2.64,2.54,.72,4.04,1.28,4.52,1.68,.47,.41,.71,.9,.71,1.49,0,.65-.35,1.17-1.05,1.56s-1.62,.59-2.76,.59c-1.27,0-2.6-.15-3.98-.46-1.38-.31-2.64-.67-3.78-1.1l-.93,5.52c1.17,.52,2.59,.92,4.25,1.2,1.66,.28,3.19,.42,4.59,.42,2.28,0,4.17-.34,5.69-1.03,1.51-.68,2.65-1.59,3.42-2.73,.76-1.14,1.15-2.51,1.15-4.1,0-2.15-.64-3.81-1.93-4.98-1.3-1.19-3.43-2.19-6.39-3Z"></path><rect class="cls-1" x="224.5" y="12.94" width="6.74" height="24.94"></rect><path class="cls-1" d="M227.87,2.1c-1.2,0-2.16,.34-2.86,1.02s-1.05,1.59-1.05,2.73,.35,2.05,1.05,2.73,1.65,1.02,2.86,1.02,2.11-.35,2.81-1.05,1.05-1.6,1.05-2.71-.35-2.01-1.05-2.71-1.64-1.03-2.81-1.03Z"></path><path class="cls-1" d="M251.67,12.69c-1.07-.23-2.08-.34-3.03-.34-1.95,0-3.75,.32-5.39,.95s-3.05,1.55-4.22,2.73c-1.17,1.19-2.07,2.62-2.71,4.3-.63,1.68-.95,3.51-.95,5.49,0,3.87,1.19,6.95,3.56,9.23,2.38,2.28,5.61,3.42,9.71,3.42,1.73,0,3.47-.19,5.22-.56s3.25-.85,4.49-1.44V2.54l-6.69,.34V12.69h0Zm0,19.58c-.78,.42-1.81,.63-3.08,.63-1.98,0-3.54-.63-4.66-1.9-1.12-1.27-1.68-3.09-1.68-5.47,0-2.51,.58-4.4,1.73-5.69,1.16-1.29,2.84-1.93,5.05-1.93,.78,0,1.66,.16,2.64,.49v13.87Z"></path><path class="cls-1" d="M275.59,12.35c-1.76,0-3.38,.32-4.88,.95s-2.78,1.53-3.86,2.68c-1.07,1.16-1.9,2.54-2.49,4.15s-.88,3.36-.88,5.25,.32,3.75,.95,5.39,1.54,3.03,2.71,4.17c1.17,1.14,2.58,2.01,4.22,2.61,1.64,.6,3.42,.9,5.34,.9,1.56,0,3.11-.15,4.64-.46s2.83-.71,3.91-1.2l-1.07-5.42c-2.25,.94-4.51,1.42-6.79,1.42-3.94,0-6.22-1.89-6.83-5.66h15.42c.13-1.3,.2-2.54,.2-3.71,0-3.29-.98-5.96-2.93-8.01-1.95-2.04-4.51-3.06-7.66-3.06Zm4.15,10.69h-9.27c.23-1.66,.79-2.96,1.68-3.91,.9-.94,2.04-1.42,3.44-1.42,1.3,0,2.32,.44,3.05,1.32,.73,.88,1.1,2.02,1.1,3.42v.59Z"></path><path class="cls-1" d="M301.56,12.35c-1.76,0-3.58,.2-5.47,.59s-3.48,.91-4.78,1.56v23.38h6.74V18.74c1.17-.55,2.52-.83,4.05-.83,1.17,0,2.13,.13,2.88,.39l.98-5.52c-1.18-.28-2.64-.43-4.4-.43Z"></path></g><g><polygon class="cls-1" points="3.77 0 0 0 0 42.11 1.38 42.11 1.38 42.11 23.49 42.11 23.49 38.34 3.77 38.34 3.77 0"></polygon><rect class="cls-1" x="41.83" y=".1" width="3.77" height="42.01"></rect><rect class="cls-1" x="9.55" y="3.96" width="26.09" height="3.77"></rect><path class="cls-1" d="M34.92,30.34c0-3.38-2.75-6.12-6.12-6.12s-6.12,2.75-6.12,6.12,2.75,6.12,6.12,6.12c1.35,0,2.6-.45,3.61-1.19l3.69,3.7,1.66-1.66-3.76-3.76c.58-.94,.92-2.04,.92-3.21Zm-9.88,0c0-2.08,1.69-3.77,3.77-3.77s3.77,1.69,3.77,3.77-1.69,3.77-3.77,3.77-3.77-1.69-3.77-3.77Z"></path><rect class="cls-1" x="9.55" y="11.5" width="26.09" height="2.51"></rect><rect class="cls-1" x="9.55" y="18.41" width="26.09" height="2.51"></rect><rect class="cls-1" x="9.55" y="28.66" width="6.82" height="2.51"></rect></g></g></g></svg>