<svg xmlns="http://www.w3.org/2000/svg" id="Layer_2" data-name="Layer 2" viewBox="0 0 173.88 28.61"><defs><style>      .cls-1 {        fill: #fff;        fill-rule: evenodd;      }    </style></defs><g id="Layer_1-2" data-name="Layer 1"><path class="cls-1" d="M20.58,27.15c-2.3-1.44-4-6.42-4-12.33,0-.22,0-.43,0-.64h0c-6.4-1-11.03-3.76-11.15-7.02l-.02,.04c-1.57,1.95-2.46,4.2-2.46,6.6,0,7.06,7.75,12.84,17.58,13.35h.04ZM0,14.3C0,6.4,9.83,0,21.95,0s21.96,6.4,21.96,14.3-9.83,14.3-21.96,14.3S0,22.2,0,14.3H0ZM21.96,2.06c2.34,0,4.33,3.55,5.07,8.51h0c4.55-.72,7.74-2.35,7.74-4.26,0-2.55-5.74-4.62-12.82-4.62S9.14,3.76,9.14,6.31c0,1.9,3.19,3.54,7.74,4.25h0c.74-4.95,2.73-8.5,5.07-8.5h0Zm1.42,25.08c9.83-.51,17.58-6.3,17.58-13.35,0-2.4-.9-4.65-2.46-6.6l-.02-.04c-.12,3.26-4.74,6.02-11.15,7.02h0c0,.21,0,.42,0,.64,0,5.91-1.7,10.89-4,12.33h.04Zm-1.42-16.21c1.02,0,2.03-.04,3.04-.13h0c-.49-3.17-1.66-5.42-3.04-5.42s-2.56,2.24-3.04,5.42h0c1.01,.09,2.03,.13,3.04,.13h0Zm0,11.76c1.76,0,3.2-3.67,3.28-8.27h0c-2.19,.2-4.39,.2-6.57,0h0c.08,4.6,1.51,8.26,3.28,8.26ZM112.03,14.3c0-6.04,4.89-10.93,10.93-10.93s10.93,4.89,10.93,10.93-4.89,10.93-10.93,10.93-10.93-4.89-10.93-10.93h0Zm10.93,6.92c3.37,0,6.11-3.1,6.11-6.92s-2.73-6.92-6.11-6.92-6.1,3.1-6.1,6.92,2.73,6.92,6.1,6.92Zm23.34-13.3V24.74h-4.61V7.93h-6.42v-3.8h17.46v3.8h-6.42Zm12,12.17h0l-1.77,4.64h-5.38l8.5-20.61h5.73l8.5,20.61h-5.38l-1.77-4.63h-8.44Zm4.22-3.48h2.9l-2.88-7.54h-.04l-2.88,7.54h2.9ZM61.4,7.93V24.74h-4.61V7.93h-6.43v-3.8h17.46v3.8h-6.43Zm7.6,6.38c0-6.04,4.89-10.93,10.93-10.93s10.93,4.89,10.93,10.93-4.89,10.93-10.93,10.93-10.93-4.89-10.93-10.93Zm10.93,6.92c3.37,0,6.1-3.1,6.1-6.92s-2.73-6.92-6.1-6.92-6.1,3.1-6.1,6.92,2.73,6.92,6.1,6.92Zm21.51,3.51h2.34v-7.83l8.04-12.79h-5.38l-4.99,8.66-4.99-8.66h-5.38l8.04,12.79v7.83h2.33Z"></path></g></svg>