<svg xmlns="http://www.w3.org/2000/svg" id="Layer_2" data-name="Layer 2" viewBox="0 0 263.45 100"><defs><style>      .cls-1 {        fill: #fff;      }    </style></defs><g id="Layer_1-2" data-name="Layer 1"><g><path class="cls-1" d="M152.25,61.73c2-.5,5.1-2,5.1-5,0-2.3-1.8-2.6-3.2-2.6-.5,0-1.3,0-1.7,.5v-.1c-.21,.51-.28,1.06-.2,1.6v5.6Z"></path><path class="cls-1" d="M155.65,63.03l-3.4,1v5c-.09,.55,.02,1.12,.3,1.6,.46,.35,1.03,.49,1.6,.4,2.1,0,4.2-1,4.2-4,0-1.76-1.07-3.35-2.7-4Z"></path><polygon class="cls-1" points="183.85 36.63 181.45 29.43 178.95 37.03 183.95 37.03 183.85 36.63"></polygon><path class="cls-1" d="M216.25,27.23c-1.7,0-1.7,.7-1.7,2.5v11.7c0,2,.1,2.8,1.8,2.8,3.9,0,5.7-3.9,5.7-8.3s-1.8-8.7-5.8-8.7Z"></path><path class="cls-1" d="M250.95,11.13H81.45C59.99-6.24,28.5-2.92,11.13,18.55-6.24,40.02-2.92,71.5,18.55,88.87c19.47,15.76,47.6,14.67,65.8-2.54H250.85c6.97-.05,12.6-5.72,12.6-12.7V23.83c0-6.94-5.56-12.59-12.5-12.7Zm-92.61,21.11c.07,0,.14,0,.21,0,1.88,.05,3.35,1.62,3.3,3.5h0c.06,1.82-1.38,3.35-3.2,3.4h0c-1.88,0-3.4-1.52-3.4-3.4-.11-1.82,1.27-3.38,3.09-3.49Zm-90.19,51.89c-11.1,6.16-24.5,6.52-35.93,.99C12.84,75.72,4.75,52.39,14.15,33.01,23.54,13.63,46.87,5.54,66.25,14.93h.2l-.1,.1c7.2,3.48,13.15,9.1,17.04,16.08,10.46,18.77,3.72,42.46-15.04,52.92l-.2,.1Zm49.2-39.2c-.3,1.2-.5,1.3-1.6,1.3h-11.2c-.5,0-1.1-.2-1.1-1-.01-.37,.18-.72,.5-.9l.3-.2c.5-.3,.4-1,.4-1.5v-13.8c0-.6,0-1.2-.4-1.6l-.3-.1c-.35-.2-.55-.6-.5-1,0-.7,.6-1,1.1-1h10.7c.4,0,1,0,1.3,.4,.29,.87,.42,1.78,.4,2.7,0,.7-.2,1.3-.8,1.3-.5,0-.8-.4-1-.9-.33-.58-.87-1.01-1.5-1.2-.76-.16-1.53-.22-2.3-.2-.67-.05-1.35,.02-2,.2-.32,.18-.51,.53-.5,.9v5.3h3.5c1.6,0,1.3-1,2.1-1s.8,1.2,.8,2c0,.7,.1,2.4-.8,2.4-.8,0-.6-1-2.1-1h-3.5v5c0,3,.2,3.1,3.4,3.1,1.25,.18,2.49-.36,3.2-1.4,.4-.5,1-1.4,1.5-1.4,.51,.05,.9,.48,.9,1-.06,.88-.23,1.76-.5,2.6Zm15.8,.6c-1.46,.74-3.07,1.11-4.7,1.1-5.1,0-9.3-3.9-9.3-10.6s4.4-11.3,9.7-11.3c1.82,.05,3.58,.6,5.1,1.6,.42,.23,.77,.58,1,1,.18,.85,.24,1.73,.2,2.6v.7c-.1,.5-.4,.9-.9,.9s-.7-.4-.9-1c-.28-.9-.76-1.72-1.4-2.4-.7-.75-1.67-1.18-2.7-1.2-4,0-5.6,4.8-5.6,9,0,3.7,1.6,8.4,5,8.4,.96,.04,1.88-.37,2.5-1.1,.53-1.05,.74-2.23,.6-3.4,0-1.9,0-2.4-1.7-2.4-.7,0-1.8,.2-1.8-1.1,0-1.2,1-1.2,1.7-1.2h3.7c.61-.02,1.21,.05,1.8,.2,.3,.2,.4,.4,.4,.8,.02,.43,.02,.87,0,1.3l-.2,2c-.03,.97,.04,1.94,.2,2.9,.04,.16,.07,.33,.1,.5,0,1.3-2,2.3-2.8,2.7Zm4.3-9.5c0-7,4.3-11.3,9.6-11.3,1.85,.03,3.65,.58,5.2,1.6,.42,.23,.77,.58,1,1,.18,.85,.24,1.73,.2,2.6v.7c-.1,.5-.4,.9-.9,.9s-.7-.4-1-1c-.25-.89-.69-1.71-1.3-2.4-.7-.75-1.67-1.18-2.7-1.2-4,0-5.6,4.8-5.6,9,0,3.7,1.6,8.4,5,8.4,.92,0,1.8-.39,2.4-1.1,.56-1.04,.81-2.22,.7-3.4,0-1.9-.1-2.4-1.7-2.4-.7,0-1.8,.2-1.8-1.1,0-1.2,1-1.2,1.7-1.2h3.7c.61-.02,1.21,.05,1.8,.2,.3,.2,.4,.4,.4,.8,.02,.43,.02,.87,0,1.3l-.2,2c-.03,.97,.04,1.94,.2,2.9,0,.17,0,.33,0,.5,0,1.3-2,2.3-2.7,2.7-1.46,.74-3.07,1.11-4.7,1.1-5.2,0-9.3-3.9-9.3-10.6Zm23.6,35.7c-1.14,1.04-2.66,1.58-4.2,1.5h-8.9c-.5,0-1.1-.2-1.1-1-.01-.37,.18-.72,.5-.9l.3-.2c.4-.3,.4-1,.4-1.6v-13.7c0-.7,.1-1.3-.4-1.7h-.3c-.35-.2-.55-.6-.5-1,0-.8,.6-1,1.1-1h8.3c1.27-.1,2.53,.21,3.6,.9,1.19,.89,1.87,2.31,1.8,3.8-.1,2.07-1.33,3.91-3.2,4.8,2.62,.57,4.46,2.92,4.4,5.6,.06,1.69-.59,3.32-1.8,4.5Zm1.3-26.4c-.05-.4,.15-.8,.5-1l.3-.2c.4-.3,.4-.9,.4-1.5v-13.8c0-.6,.1-1.2-.4-1.6l-.3-.1c-.35-.2-.55-.6-.5-1,0-.7,.6-1,1.1-1h4.4c.5,0,1.1,.3,1.1,1,.05,.4-.15,.8-.5,1l-.3,.1c-.5,.4-.4,1-.4,1.6v13.6c0,1.7,.3,1.7,1.6,1.7h.9c1.25,.18,2.49-.36,3.2-1.4,.4-.5,.9-1.4,1.5-1.4,.18,0,.36,.08,.5,.2l.4-1.2c.9-3.5,2.1-6.7,3.2-10l1.7-4.4c.4-.9,.9-1,1.7-1,1.3,0,1.6,.4,2,1.8l4.8,13.7,.8,3c.07,.42,.33,.79,.7,1,.24,.23,.36,.57,.3,.9,0,.8-.5,1-1,1h-4c-.5,0-1.3-.1-1.3-1s1-.8,1-1.4-.8-3.4-1-4l-.1-.5h-6.4c-.4,1.27-.7,2.58-.9,3.9,0,1.18,1.15,1.01,1.19,1.95-.04,1.13-1.2,.95-1.79,.95h-1.3c-.33,.04-.67,.04-1,0-.23,.06-.46,.09-.7,.1h-10.3c-.5,0-1.1-.3-1.1-1Zm15.2,26.5c-.3,1.2-.5,1.4-1.6,1.4h-11.2c-.5,0-1.1-.2-1.1-1-.05-.4,.15-.8,.5-1l.3-.1c.5-.3,.4-1,.4-1.6h0v-13.7c0-.6,0-1.3-.4-1.6l-.3-.2c-.32-.18-.51-.53-.5-.9,0-.8,.6-1,1.1-1h10.7c.4,0,1,0,1.3,.4,.29,.87,.42,1.78,.4,2.7,0,.7-.2,1.2-.8,1.2-.5,0-.8-.4-1.1-.8-.3-.56-.8-.98-1.4-1.2-.76-.16-1.53-.22-2.3-.2-.67-.05-1.35,.02-2,.2-.32,.18-.51,.53-.5,.9v5.3h3.4c1.7,0,1.4-1,2.2-1s.8,1.2,.8,2c0,.7,.1,2.3-.8,2.3-.8,0-.6-1-2.2-1h-3.4v5c0,3,.2,3.2,3.4,3.2,1.4,0,2.3-.1,3.2-1.4,.4-.6,1-1.4,1.5-1.4,.51,.05,.9,.48,.9,1-.07,.85-.24,1.69-.5,2.5Zm13.1-.2c-1.39,1.34-3.27,2.06-5.2,2-1.54,.02-3.05-.36-4.4-1.1-1.1-.7-2.7-2.2-2.7-4h-.1c0-.8,.5-1.6,1.1-1.6,.7,0,1,.5,1.3,1.1,.36,.87,.91,1.66,1.6,2.3,.86,.66,1.92,1.02,3,1,1.88,.06,3.44-1.42,3.5-3.3h0c.06-.93-.4-1.82-1.2-2.3-.95-.47-1.96-.8-3-1-1.3-.27-2.53-.82-3.6-1.6-1.31-1.17-2.04-2.85-2-4.6,0-1.96,.79-3.84,2.2-5.2,1.3-1.12,2.99-1.69,4.7-1.6,1.77,.03,3.5,.55,5,1.5,.33,.16,.58,.45,.7,.8,.12,.86,.15,1.73,.1,2.6,0,.7-.3,1.2-.8,1.2-1.3,0-1.1-4.1-4.9-4.1-1.55,0-2.8,1.25-2.8,2.8h0c0,2,1.5,2.6,2.9,3l1.8,.6c1.26,.31,2.43,.93,3.4,1.8,1.04,1.15,1.61,2.65,1.6,4.2,.05,2.06-.74,4.05-2.2,5.5Zm15.8-15c-1,0-1.1-2.4-3.8-2.4-1,0-.9,.6-.9,1.6h0v13.7c0,.6,0,1.3,.4,1.6l.3,.2c.36,.16,.59,.51,.6,.9,0,.8-.7,1-1.2,1h-4.3c-.5,0-1.2-.2-1.2-1-.04-.43,.21-.83,.6-1l.2-.1c.5-.3,.4-1,.4-1.6v-13.7c0-1,.1-1.6-.9-1.6-2.6,0-2.6,2.4-3.7,2.4-.5,0-.9-.4-.9-1,.1-1.12,.33-2.23,.7-3.3,.2-.2,.8-.2,1-.2h11.8c.3,0,.9,0,1,.2,.34,.72,.55,1.5,.6,2.3,.06,.33,.1,.66,.1,1,0,.6-.3,1-.8,1Zm1.3-29.5v-.1c-.4,.2-.7,.3-.9,.8-.07,.33-.1,.66-.1,1v15.6c0,1.6,0,2-1.5,2-.41,.07-.83-.08-1.1-.4-.62-.97-1.19-1.97-1.7-3l-7.2-12.4v12c0,.34,.03,.67,.1,1,.2,.5,.5,.6,.9,.8,.42,.14,.67,.56,.6,1,0,.9-1,.8-1.6,.8h-2c-.5,0-1.6,.1-1.6-.9-.07-.44,.18-.86,.6-1,.4-.1,.7-.2,.9-.7,.07-.33,.1-.66,.1-1v-12.7c0-1.2,.2-2.3-1-2.7-.4-.2-.8-.4-.8-1,0-1,.7-1,1.3-1h3.2c.8,0,1,0,1.5,.7,1.53,2.25,2.93,4.59,4.2,7l3.1,5.4v-9.5c.03-.33,.03-.67,0-1-.3-.5-.6-.6-1-.8-.38-.18-.59-.59-.5-1,0-1,1-.8,1.5-.8h2c.6,0,1.6-.1,1.6,.9,.07,.44-.18,.86-.6,1Zm16.5,16.2c-1.56,1.98-3.98,3.1-6.5,3h-7.4c-.5,0-1.2-.3-1.2-1-.04-.43,.21-.83,.6-1l.2-.2c.5-.3,.5-.9,.5-1.5v-13.8c0-.6,0-1.2-.5-1.6l-.2-.1c-.36-.16-.59-.51-.6-.9,0-.8,.7-1,1.2-1h6.6c2.4,0,4.6,.3,6.6,2.3,2.04,2.15,3.12,5.04,3,8,.11,2.78-.7,5.52-2.3,7.8Zm7.2-12.4c-.3,.3-1,1.1-1.4,1.1-.33,0-.6-.27-.6-.6,0-.11,.04-.21,.1-.3v-.1c.83-.89,1.39-2,1.6-3.2-.23,.03-.47,.03-.7,0-.99-.05-1.76-.89-1.71-1.89,0-.04,0-.08,0-.11,0-1.22,.98-2.2,2.2-2.2,.03,0,.07,0,.1,0,1.3,0,2.3,1.3,2.3,3-.07,1.62-.75,3.15-1.9,4.3Zm14.4,13.8c-1.37,1.31-3.2,2.03-5.1,2-1.54,.02-3.05-.36-4.4-1.1-1.2-.7-2.8-2.3-2.8-4,0-.8,.5-1.6,1.2-1.6,.6,0,1,.5,1.2,1,.36,.87,.91,1.66,1.6,2.3,.85,.67,1.91,1.02,3,1,1.8,0,3.29-1.4,3.4-3.2l.1-.1c.02-.9-.43-1.73-1.2-2.2-.92-.46-1.89-.79-2.9-1-1.34-.26-2.6-.8-3.7-1.6-1.31-1.17-2.04-2.85-2-4.6,0-1.96,.79-3.84,2.2-5.2,1.26-1.13,2.91-1.74,4.6-1.7,1.77,.03,3.5,.55,5,1.5,.35,.19,.6,.51,.7,.9,.12,.86,.15,1.73,.1,2.6,0,.7-.2,1.1-.8,1.1-1.2,0-1-4-4.8-4-1.54-.11-2.88,1.05-2.99,2.59,0,.04,0,.07,0,.11,0,2.1,1.7,2.7,3,3.1l1.8,.6c1.25,.29,2.42,.87,3.4,1.7,1.06,1.18,1.64,2.71,1.6,4.3,.05,2.06-.74,4.05-2.2,5.5Z"></path><path class="cls-1" d="M25.8,37.68c-7.29,13.01-2.66,29.46,10.34,36.76,8.2,4.6,18.21,4.6,26.41,0h.2c12.98-7.34,17.55-23.82,10.21-36.79-2.41-4.26-5.94-7.79-10.21-10.21h-.1l-.1-.1c-13.01-7.29-29.46-2.66-36.76,10.34Zm24.36,22.26l-14.6,5.9c-.7,.3-1.6,.4-2-.4-.1-.6,.1-.9,.4-1.3l.3-.3c.5-.6,.1-1.2-.2-1.9l-5.7-14.3c-.3-.6-.5-1.4-1.2-1.4h-.4c-.5-.1-1-.2-1.2-.7-.3-.8,.4-1.4,1.1-1.6l14-5.7c.5-.2,1.3-.6,1.8-.3,.74,.74,1.32,1.62,1.7,2.6,.2,.7,.2,1.4-.6,1.8-.6,.15-1.23,0-1.7-.4-.73-.41-1.58-.55-2.4-.4-1.06,.23-2.1,.57-3.1,1-.85,.29-1.66,.7-2.4,1.2-.37,.28-.53,.76-.4,1.2l2.3,5.5,4.5-1.8c2.1-.8,1.3-1.8,2.3-2.2,1.1-.5,1.6,.9,2,1.6,.3,.8,1.1,2.5-.1,3-1,.4-1.2-.8-3.2,0l-4.6,1.9,2.2,5.2c1.3,3,1.7,3.1,5.8,1.5,1.8-.7,3-1.3,3.7-3.2,.2-.8,.5-2,1.3-2.3,.55-.26,1.2-.03,1.47,.52,.01,.03,.02,.05,.03,.08,.28,.97,.42,1.99,.4,3h-.1c.2,1.4,0,1.6-1.4,2.2Zm12.4-23.6h.2l.2,.1c1.78,.19,3.32,1.34,4,3,.9,2.5-.7,5.1-2.4,6.7,3.3-.6,6.7,.4,8,3.8,.7,1.81,.52,3.85-.5,5.5-1.17,1.75-2.9,3.05-4.9,3.7l-4.4,1.7h-.2l-7,2.8c-.7,.2-1.6,.3-2-.5-.2-.5,.1-.8,.4-1.2l.3-.3c.5-.6,.1-1.3-.1-1.9l-5.6-14.4c-.2-.7-.4-1.4-1.2-1.5h-.4c-.4-.1-.8-.2-1-.7-.4-.8,.4-1.4,1-1.6l11-4.2c1.44-.68,3.01-1.02,4.6-1Z"></path><path class="cls-1" d="M54.25,43.63l2.2,5.8c2.4-1.6,5.9-4.7,4.7-7.9-.56-1.28-1.55-1.69-2.63-1.67-.86,.02-1.77,.31-2.57,.67h0c-.09,.03-.18,.05-.27,.09s-.19,.07-.29,.1c-.2,.08-.4,.17-.58,.27-.38,.21-.7,.49-.85,.84-.03,.15-.04,.31-.04,.46,0,.31,.05,.62,.15,.91,.05,.15,.11,.29,.19,.43Z"></path><path class="cls-1" d="M59.45,57.03c.11,.39,.23,.74,.41,1.03,.14,.24,.32,.44,.59,.57,.19,.04,.38,.05,.57,.05,.49,0,.98-.12,1.43-.35h.4c2.8-1,5-3.3,3.8-6.4-.35-.79-.9-1.46-1.58-1.95-.65-.46-1.41-.76-2.22-.85h-.2c-.33-.03-.67-.03-1,0l-.1-.1-4.1,2.8,2,5.2Z"></path><path class="cls-1" d="M86.75,89.13s-.07,0-.1,0c-1.88,0-3.4,1.52-3.4,3.4,0,1.88,1.52,3.4,3.4,3.4s3.4-1.52,3.4-3.4c0-.03,0-.07,0-.1,0-1.82-1.48-3.3-3.3-3.3Z"></path><path class="cls-1" d="M19.25,32.03l2.2,2c2,1.5,3.4,1,5-1,2.2-2.7,1.2-3.9-.1-4.9l-2.5-1.9c-.4-.3,.2-.7-.2-1-.2-.2-.4-.1-.7,.3l-1,1.2c-.3,.4-.3,.7-.1,.7,.4,.4,.8-.4,1.3,0l2.5,1.8c1.1,.8,1.4,1.6,.6,2.6-.9,1.3-2.1,.6-2.9,0-.7-.5-2.1-2-2.3-2-.4-.4,.2-.8-.1-1s-.5-.2-.8,.3l-1.6,2v-.1c-.4,.6-.5,.9-.3,1,.4,.3,.6-.3,1,0Z"></path><path class="cls-1" d="M65.05,25.63l2.1,1.5c.5,.2,.8,.2,.8,0,.4-.4-.3-.6,0-1l1-1.4,3.7-1.3c.5-.2,.9,0,1-.3,.2-.3,.1-.5-.4-.8l-.9-.6c-.5-.2-.7-.2-.9,0-.1,.3,.2,.6,.2,.8-.85,.54-1.8,.92-2.8,1.1,0-.3-.3-2.5,0-2.9,.1-.2,.6,0,.7-.2,.2-.2,.2-.4-.3-.8l-2.6-1.6v-.1c-.4-.2-.7-.2-.8,0-.3,.4,.3,.6,.3,1.4,.05,1.24,.18,2.48,.4,3.7l-1,1.4c-.3,.4-.7-.1-1,.4-.1,.2,0,.4,.5,.7Z"></path><path class="cls-1" d="M30.15,27.13c0,.2-.4,.6-.3,.9,.2,.2,.4,.2,.7,0l1.2-.7c.4-.3,.5-.5,.3-.7-.2-.4-.6,0-.8-.2-.15-.38-.26-.79-.3-1.2l2.5-1.6c.39,.31,.76,.64,1.1,1,0,0-.3,.3-.1,.6,.1,.2,.4,.1,.9-.1l2-1.3c.4-.3,.6-.5,.4-.7-.2-.4-.5,0-.8-.3l-5-3.1c-.7-.4-.8-.4-1.7,.2-.57,.26-.9,.88-.8,1.5,0,1.1,.6,5.2,.8,5.8l-.1-.1Zm2.4-4.1l-.08,.05-1.72,1.05-.02-.2-.28-2.3,2.1,1.4Z"></path><path class="cls-1" d="M47.95,15.43v4.8c.1,.5-.6,.3-.6,.8,0,.3,.2,.3,.8,.3h2.6c.6,0,.7-.1,.7-.4,0-.5-.6-.2-.7-.8v-4.8c0-.5,.6-.3,.6-.8,0-.3-.1-.4-.7-.3h-2.6c-.6,0-.8,.1-.8,.4,0,.5,.7,.2,.7,.8Z"></path><path class="cls-1" d="M55.05,16.13c.6,.2,.8-.7,1.8-.4,.3,.1,.3,.2,.3,.5l-1.2,4.6c-.2,.5-.8,.1-.8,.6-.1,.2,0,.4,.6,.6l2.5,.6c.6,.2,.8,.1,.8-.1,.2-.5-.5-.5-.4-1l1.2-4.5c.1-.3,.3-.4,.6-.3,1,.2,.6,1.1,1.3,1.2,.02,.01,.05,.02,.07,.03,.26,.08,.54-.07,.63-.33,.07-.4,.07-.8,0-1.2l-.6-.3-6-1.6h-.7c-.25,.3-.46,.64-.6,1v-.1c-.03,.08-.05,.16-.04,.24,.02,.28,.27,.48,.54,.46Z"></path><path class="cls-1" d="M38.65,17.03l1,4.7c.1,.5-.5,.5-.4,1,0,.2,.2,.3,.8,.2l5-1.2c.5-.1,.6-.2,.8-.4,.08-.46,.08-.94,0-1.4-.09-.24-.35-.37-.6-.3-.8,.2-.4,1.2-1.8,1.6-.8,.2-1,.2-1.1-.4l-1-4.4c-.1-.5,.5-.4,.4-.9,0-.3-.2-.4-.8-.3l-2.5,.6c-.7,.2-.7,.3-.7,.6,.1,.5,.7,.1,.9,.6Z"></path><path class="cls-1" d="M74.95,67.73c-.2-.3,.2-.7-.2-.9-.2-.3-.5-.1-1,.5l-.5,.7c-.6,.5-.7,.8-.4,1,.3,.3,.9-.3,1.3,0,.4,.3,.9,.8,2.1,4-3.1-.7-4.2-.9-4.7-1.3-.4-.3,.2-.7-.2-1-.2-.2-.4-.1-.8,.3l-1.7,2c-.3,.3-.3,.6-.2,.7,.3,.2,.5-.1,1.2,.2,1.72,.75,3.54,1.26,5.4,1.5,.61,.19,1.26-.06,1.6-.6,.5-.7,.6-.8,.5-1.3h.1c0-1.1-1.6-4.1-2.5-5.8Z"></path><path class="cls-1" d="M27.85,70.93l.1-.1q.2-.8-.4-1.7c-.35-.59-1.06-.84-1.7-.6l-5.7,1.6c-.3,0-.7-.3-1-.1-.2,.2-.1,.4,.1,.7l.8,1c.4,.4,.6,.5,.8,.3,.3-.3-.2-.6,.1-.9,.38-.19,.78-.33,1.2-.4l1.9,2.3c-.24,.42-.51,.82-.8,1.2-.2,0-.5-.2-.7,0-.2,0-.1,.4,.2,.8l1.6,2c.2,.3,.5,.4,.7,.2,.3-.2,0-.5,.2-.8l2.6-5.5Zm-3.2,1l-.07-.08-1.33-1.52,2.28-.55,.22-.05-1.1,2.2Z"></path><path class="cls-1" d="M75.25,64.83c-.3,.6-.2,.8,0,.9,.5,.2,.5-.5,1-.3l4.5,1.8c.5,.2,0,.7,.5,.9,.2,.1,.4,0,.6-.6l2.3-5.4c.1-.5,.2-.8,.1-1-.26-.25-.57-.45-.9-.6-.09-.06-.19-.1-.3-.1-.28,0-.5,.22-.5,.5-.2,.8,.8,.6,0,2.6-.4,1-.6,1.1-1.4,.8l-1.4-.6,.5-1.3c.4-.9,.7-.6,.9-1,.1-.3,0-.5-.7-.8s-.9-.2-1,.1c-.1,.5,.3,.5-.1,1.3l-.6,1.4-1-.5c-.7-.2-.7-.4-.3-1.2,.8-2.1,1.2-1.1,1.6-2,.07-.3-.11-.6-.4-.7l-.4-.2c-.4-.2-.7,0-.9,.7l-2.2,5.3h.1Z"></path><path class="cls-1" d="M78.65,56.93v.1c.6,0,.3-.6,.9-.6h4.8c.5,0,.3,.7,.8,.7,.2,0,.4-.2,.4-.8v-4.1c.1-2.6-1-4.7-3.5-4.8-2.5-.1-3.6,2-3.7,4.7v4c0,.6,0,.8,.3,.8Zm6.1-4s0,.07,0,.1c0,.5-.2,.6-.8,.6h-4c-.24,0-.41-.05-.53-.16-.12-.11-.17-.29-.17-.54,.05-1.43,1.26-2.56,2.69-2.51,.04,0,.07,0,.11,0,.54-.02,1.05,.13,1.48,.39,.71,.44,1.19,1.21,1.22,2.11Z"></path><path class="cls-1" d="M43.95,79.23l-3.9-.9c-.6-.1-.8,0-.8,.2-.1,.5,.5,.4,.4,1l-1,4.7c-.2,.5-.8,.1-.9,.6,0,.2,0,.4,.7,.6l2.6,.6c.6,.1,.8,0,.8-.3,.1-.5-.6-.4-.5-.9l.3-1.5c3,.5,5,.2,5.3-1.3s-1-2.3-3-2.8Zm.1,2.1v-.1c-.2,1-1.2,1.3-2.2,1.2h0l.6-2.2c0-.16,.06-.28,.16-.36,.1-.07,.24-.09,.44-.04,.66,.09,1.12,.69,1.03,1.35,0,.05-.02,.1-.03,.15Z"></path><path class="cls-1" d="M35.15,75.93h.1l-3.3-2.2c-.6-.3-.8-.3-.9,0-.3,.4,.4,.5,0,1l-2.5,4c-.3,.5-.7,0-1,.3-.1,.3,0,.5,.4,.8l2.3,1.5c.5,.3,.7,.2,.8,0,.3-.4-.4-.6-.1-1l.8-1.3c2.6,1.5,4.6,1.9,5.4,.6s-.1-2.5-2-3.7Zm-.46,1.94s-.02,.04-.04,.06c-.23,.37-.58,.55-.97,.59-.44,.05-.95-.08-1.43-.29l1.2-1.9c.1-.1,.2-.17,.32-.2,.13-.03,.28,0,.48,.1,.57,.33,.77,1.07,.44,1.64Z"></path><path class="cls-1" d="M21.25,42.63h.1c0-.07,0-.13,0-.2,.96-.6,1.67-1.52,2-2.6,.2-.5,.4-1.4-.2-1.6-.4-.1-.7,.2-.9,.6l-.2,1.1c-.08,.29-.22,.56-.4,.8,.2-1.75-.84-3.41-2.5-4-2.3-.6-4.3,1.2-5,3.7s-.2,5.2,2.1,5.9,4.3-1.2,5-3.7Zm-4.1,.8c-1.8-.5-2.6-1.4-2.2-2.7,.15-.49,.41-.85,.77-1.08,.36-.23,.81-.32,1.34-.29h.03c.35,.03,.74,.12,1.16,.26,.51,.15,.93,.32,1.28,.52,.61,.36,.96,.81,1.02,1.38-.32,.12-.68,.12-1,0-.13-.04-.26-.08-.38-.07-.15,0-.27,.09-.32,.37-.1,.5,.1,.7,.5,.8,.32,.1,.66,.13,1,.1-.32,.64-.89,.95-1.67,.96-.44,0-.95-.08-1.53-.26Z"></path><path class="cls-1" d="M63.05,76.43h-.1c-2.3,1.3-3.8,3.6-2.7,5.7,1.2,2.1,4,2.2,6.2,1l.2-.1h.1l.1-.1c2-1.3,3.3-3.5,2.2-5.5-1-2-3.7-2.2-6-1Zm3.3,5.8h-.1l-.1,.1c-.33,.19-.65,.27-.96,.26-.82-.02-1.56-.7-2.14-1.86-.9-1.5-.8-2.7,.2-3.3v-.1c0-.1,.1,0,.2,0,.4-.23,.79-.31,1.16-.26,.74,.09,1.4,.7,1.94,1.76,.8,1.6,.8,2.7-.2,3.4Z"></path><path class="cls-1" d="M57.45,85.13v.1c-.41-.82-.99-1.53-1.7-2.1,.85-.31,1.44-1.1,1.5-2-.2-1.4-1.6-1.7-3-1.5l-5,.5c-.6,0-.8,.2-.7,.5,0,.5,.6,.2,.7,.7l.5,4.8c0,.5-.6,.4-.6,.9,0,.2,.2,.3,.8,.3l2.6-.3c.6,0,.7-.2,.7-.5,0-.5-.6-.2-.7-.7l-.2-1.7,.7-.2c.62,.54,1.11,1.23,1.4,2,0,.2-.4,.3-.3,.6,0,.3,.2,.3,.8,.3l2.6-.3c.7,0,.8-.2,.8-.4,0-.4-.4-.2-.9-1Zm-4.23-2.16c-.17,.07-.36,.12-.56,.14-.04,0-.07,.01-.11,.02l-.1,.1h-.2v-.1l-.2-1.7c0-.6,.3-.8,.9-.9,.03,0,.05,0,.08,0,.62-.07,1.2,.34,1.31,.97v.03c0,.69-.46,1.2-1.12,1.44Z"></path></g></g></svg>