<svg xmlns="http://www.w3.org/2000/svg" id="Layer_2" data-name="Layer 2" viewBox="0 0 60.25 43.95"><defs><style>      .cls-1 {        fill: #fff;        fill-rule: evenodd;      }    </style></defs><g id="Layer_1-2" data-name="Layer 1"><path class="cls-1" d="M31.34,3.56c-3.15,3.89-12.15,16.45-13.18,18.08-1.97,3.12-2.15,4.63-2.21,5.63-.06,.99-.06,2.77,1.55,4.22,2.69,2.4,6.46,2.01,9.81,2.01h27.58c1.18,0,1.53-.35,2.17-1.2,2.21-3.37,3.19-7.03,3.19-10.3,0-7.01-4.55-15.83-16.06-19.82l-1.3,1.86c9.14,4.33,12.91,10.01,12.91,17.94,.06,2.13-.5,4.43-1.9,6.56H27.08c-1.61,0-1.84-1.82-1.26-2.85,2.3-4.09,4.87-8.03,7.68-11.79,2.71-3.62,5.38-7.01,8.19-10.55,.76-.99,.25-1.94-1.26-2.24-3.14-.66-6.41-1.12-10.37-1.12C8.05,0,0,12.64,0,22.01c0,10.16,8.11,21.95,30.12,21.95,12.21,0,20.21-3.93,24.83-8.98h-4.66c-4.05,3.74-10.99,6.39-20.17,6.39-18.64,0-25.51-10.47-25.51-19.49C4.74,13.82,12.12,2.71,30.58,2.34c.7-.02,1.24,.62,.75,1.22h0Z"></path></g></svg>