<svg xmlns="http://www.w3.org/2000/svg" id="Layer_2" data-name="Layer 2" viewBox="0 0 89 23.79"><defs><style>      .cls-1, .cls-2 {        fill: #fff;      }      .cls-2 {        fill-rule: evenodd;      }    </style></defs><g id="Layer_1-2" data-name="Layer 1"><g><path class="cls-1" d="M86.36,18.5c1.46,0,2.64-1.18,2.64-2.64s-1.18-2.64-2.64-2.64-2.64,1.17-2.64,2.64,1.17,2.64,2.64,2.64Z"></path><path class="cls-2" d="M11.39,18.03L17.37,.38h-4.96l-3.61,13.4h-.1L5.09,.38H0L6.03,18.03h5.36Zm12.77,.38c4.31,0,7.43-2.32,7.95-5.78h-4.36c-.44,1.35-1.77,2.22-3.51,2.22-2.42,0-4-1.73-4-4.25v-.3h12.01v-1.47c0-5.37-3.2-8.84-8.27-8.84S15.59,3.66,15.59,9.29s3.22,9.12,8.58,9.12Zm3.6-11.05h-7.39c.16-2.21,1.66-3.8,3.74-3.8s3.56,1.55,3.66,3.8Zm13.53,11.05c4.31,0,7.43-2.32,7.95-5.78h-4.36c-.44,1.35-1.77,2.22-3.51,2.22-2.42,0-4-1.73-4-4.25v-.3h12.01v-1.47c0-5.37-3.2-8.84-8.27-8.84s-8.4,3.66-8.4,9.29,3.22,9.12,8.58,9.12Zm3.6-11.05h-7.39c.16-2.21,1.66-3.8,3.74-3.8s3.56,1.55,3.66,3.8Zm10.39,16.43V15.07h.1c.93,1.99,2.88,3.24,5.41,3.24,4.36,0,7.05-3.42,7.05-9.11S65.13,.1,60.71,.1c-2.52,0-4.45,1.28-5.4,3.36h-.1V.38h-4.68V23.79h4.75Zm3.84-9.35c-2.32,0-3.85-2.04-3.85-5.24s1.53-5.25,3.85-5.25,3.87,2.06,3.87,5.25-1.5,5.24-3.87,5.24Zm15.97,3.97c4.6,0,7.75-2.29,7.75-5.76,0-2.63-1.41-4.03-4.91-4.82l-3.33-.72c-1.53-.36-2.28-.95-2.28-1.83,0-1.14,1.07-1.89,2.71-1.89,1.76,0,2.88,.87,2.97,2.29h4.37c-.07-3.42-2.91-5.66-7.28-5.66s-7.35,2.21-7.35,5.57c0,2.6,1.69,4.35,4.99,5.1l3.22,.72c1.56,.38,2.15,.87,2.15,1.76,0,1.15-1.09,1.88-2.89,1.88s-3.04-.86-3.27-2.34h-4.63c.26,3.44,3.12,5.71,7.77,5.71Z"></path></g></g></svg>